<?xml version="1.0" encoding="UTF-8" standalone="no"?>
<!-- Created with Inkscape (http://www.inkscape.org/) -->

<svg
   xmlns:dc="http://purl.org/dc/elements/1.1/"
   xmlns:cc="http://creativecommons.org/ns#"
   xmlns:rdf="http://www.w3.org/1999/02/22-rdf-syntax-ns#"
   xmlns:svg="http://www.w3.org/2000/svg"
   xmlns="http://www.w3.org/2000/svg"
   xmlns:sodipodi="http://sodipodi.sourceforge.net/DTD/sodipodi-0.dtd"
   xmlns:inkscape="http://www.inkscape.org/namespaces/inkscape"
   id="svg2"
   version="1.1"
   inkscape:version="0.91 r13725"
   xml:space="preserve"
   width="99.999992"
   height="79.929878"
   viewBox="0 0 99.999994 79.929874"
   sodipodi:docname="fondo.svg"
   inkscape:export-filename="/home/jorge/Documentos/Juan_Guillermo/sitio_webJuan_Guillermo/img/fondo.png"
   inkscape:export-xdpi="90"
   inkscape:export-ydpi="90"><metadata
     id="metadata8"><rdf:RDF><cc:Work
         rdf:about=""><dc:format>image/svg+xml</dc:format><dc:type
           rdf:resource="http://purl.org/dc/dcmitype/StillImage" /><dc:title></dc:title></cc:Work></rdf:RDF></metadata><defs
     id="defs6"><clipPath
       clipPathUnits="userSpaceOnUse"
       id="clipPath18"><path
         d="m 0,2400 2400,0 L 2400,0 0,0 0,2400 Z"
         id="path20"
         inkscape:connector-curvature="0" /></clipPath><clipPath
       clipPathUnits="userSpaceOnUse"
       id="clipPath26"><path
         d="m 0.500488,2399.58 2399.999512,0 0,-2400.004805 -2399.999512,0 0,2400.004805 z"
         id="path28"
         inkscape:connector-curvature="0" /></clipPath><clipPath
       clipPathUnits="userSpaceOnUse"
       id="clipPath42"><path
         d="m 0,2400 2400,0 L 2400,0 0,0 0,2400 Z"
         id="path44"
         inkscape:connector-curvature="0" /></clipPath></defs><sodipodi:namedview
     pagecolor="#ffffff"
     bordercolor="#666666"
     borderopacity="1"
     objecttolerance="10"
     gridtolerance="10"
     guidetolerance="10"
     inkscape:pageopacity="0"
     inkscape:pageshadow="2"
     inkscape:window-width="1366"
     inkscape:window-height="744"
     id="namedview4"
     showgrid="false"
     inkscape:zoom="5.0346667"
     inkscape:cx="54.124923"
     inkscape:cy="46.500938"
     inkscape:window-x="0"
     inkscape:window-y="24"
     inkscape:window-maximized="1"
     inkscape:current-layer="g10"
     fit-margin-top="0"
     fit-margin-left="0"
     fit-margin-right="0"
     fit-margin-bottom="0" /><g
     id="g10"
     inkscape:groupmode="layer"
     inkscape:label="coffee grain"
     transform="matrix(1.25,0,0,-1.25,-4026.9132,165.32203)"><g
       id="g8375"
       transform="matrix(0.06240222,0,0,0.06240222,3020.4999,64.050793)"
       inkscape:export-xdpi="90"
       inkscape:export-ydpi="90"><rect
         transform="scale(1,-1)"
         y="-1093.0193"
         x="3221.5305"
         height="1024.7056"
         width="1282.0056"
         id="rect8323"
         style="opacity:1;fill:#8a6d3b;fill-opacity:0.85882353;fill-rule:nonzero;stroke:none;stroke-width:1.67700005;stroke-miterlimit:4;stroke-dasharray:none;stroke-opacity:1" /><path
         d="m 3376.1276,889.6524 c -16.5599,-20.0619 -32.8247,-31.087 -47.7534,-40.7421 -2.1114,1.2822 -3.39,2.0819 -5.4221,3.6241 -3.1409,2.3837 -2.0247,1.9257 -4.6198,4.6547 15.7983,9.8978 30.2991,21.1493 47.101,41.5035 20.4675,24.7956 26.3318,42.0655 32.5397,60.3489 6.5274,19.2222 13.2777,39.0987 36.0709,67.407 10.6329,13.2065 25.5065,22.5971 40.2908,30.9683 2.3375,-1.3861 0.6527,0.1009 2.8935,-1.5996 3.0748,-2.3336 5.089,-4.2351 7.6405,-6.9008 -15.753,-8.3178 -29.6065,-18.4385 -39.9911,-31.3377 -20.7938,-25.826 -26.7451,-43.3512 -33.0457,-61.9057 -6.4579,-19.0164 -13.134,-38.6793 -35.7043,-66.0206 m 111.7619,176.9043 c -44.0626,33.4401 -108.3993,18.8603 -164.0708,-54.4954 -55.6721,-73.3566 -52.4041,-139.2445 -8.3416,-172.6846 44.0626,-33.4401 108.4,-18.8596 164.072,54.497 55.6715,73.3558 52.4029,139.2429 8.3404,172.683"
         style="fill:#69502e;fill-opacity:1;fill-rule:nonzero;stroke:none"
         id="path76"
         inkscape:connector-curvature="0" /><path
         inkscape:connector-curvature="0"
         id="path8325"
         style="fill:#524028;fill-opacity:1;fill-rule:nonzero;stroke:none"
         d="m 3694.3472,783.6706 c 14.1358,-21.83776 19.7443,-40.66968 24.4494,-57.81463 -1.8591,-1.62659 -3.0071,-2.6046 -5.0901,-4.0772 -3.2198,-2.2761 -2.4466,-1.34992 -5.831,-3.00152 -4.6743,18.04726 -11.0305,35.26552 -25.3721,57.42214 -17.4712,26.99068 -32.1695,37.78874 -47.7306,49.21998 -16.3599,12.0189 -33.2764,24.44759 -53.3958,54.71479 -9.3863,14.1197 -13.8558,31.1324 -17.3802,47.7526 2.0263,1.8108 0.1005,0.6527 2.3975,2.2766 3.152,2.2282 5.5723,3.5754 8.8832,5.2045 3.1815,-17.5277 8.6546,-33.7879 17.8228,-47.5782 18.3553,-27.61245 33.2709,-38.57044 49.0625,-50.17179 16.1846,-11.89059 32.9199,-24.18414 52.1844,-53.94727 m -134.9785,159.89586 c -45.1684,-31.9307 -50.6636,-97.6695 2.4948,-172.86633 53.159,-75.19768 116.9665,-91.946 162.1348,-60.01541 45.1684,31.93069 50.6632,97.67033 -2.4959,172.86794 -53.1584,75.1968 -116.9653,91.9443 -162.1337,60.0138" /><path
         d="m 3971.9314,931.71555 c 22.55,-12.96951 36.1412,-27.16017 48.1582,-40.26279 -0.9108,-2.29618 -1.4853,-3.69058 -2.6656,-5.95204 -1.8246,-3.49551 -1.5599,-2.31842 -3.8161,-5.33357 -12.4018,13.91936 -25.9211,26.33301 -48.7998,39.49216 -27.8708,16.0299 -45.8784,18.92177 -64.9428,21.9828 -20.0435,3.21892 -40.7692,6.54814 -72.4924,24.28313 -14.7995,8.27317 -26.5465,21.36576 -37.2735,34.54086 0.9754,2.5365 -0.2088,0.6266 1.0929,3.1204 1.7861,3.4219 3.3238,5.7259 5.525,8.6874 10.8364,-14.139 23.1325,-26.10375 37.5875,-34.18353 28.9413,-16.17918 47.2153,-19.11406 66.5625,-22.22112 19.8288,-3.18485 40.3317,-6.47662 71.0641,-24.1537 m -193.1112,80.58485 c -25.5957,-49.03682 -0.456,-110.02689 81.181,-152.63887 81.6379,-42.61247 146.0501,-28.36553 171.6457,20.67121 25.5956,49.03689 0.4552,110.02748 -81.1827,152.63986 -81.637,42.612 -146.0483,28.3646 -171.644,-20.6722"
         style="fill:#43331c;fill-opacity:1;fill-rule:nonzero;stroke:none"
         id="path8327"
         inkscape:connector-curvature="0" /><path
         inkscape:connector-curvature="0"
         id="path8329"
         style="fill:#69502e;fill-opacity:1;fill-rule:nonzero;stroke:none"
         d="m 3663.3507,449.84345 c -5.4916,-25.42739 -14.8729,-42.69261 -23.6969,-58.12713 -2.4645,0.16882 -3.9676,0.29169 -6.481,0.72788 -3.885,0.6742 -2.6831,0.78022 -6.2419,2.01187 9.4848,16.04961 17.1953,32.70548 22.7676,58.50368 6.7876,31.42721 4.0619,49.4608 1.1759,68.55246 -3.0336,20.0723 -6.1698,40.82816 1.0696,76.4439 3.3768,16.61528 12.2733,31.78955 21.5589,46.01735 2.713,-0.15723 0.5334,0.38949 3.305,-0.0914 3.8032,-0.66006 6.4658,-1.42361 9.9568,-2.61907 -10.1705,-14.62543 -17.8256,-29.97951 -21.123,-46.20777 -6.604,-32.49233 -3.8384,-50.79266 -0.9101,-70.1677 3.0008,-19.85757 6.1048,-40.38963 -1.3809,-75.04405 m 17.9926,208.4757 c -54.5005,9.4581 -104.9467,-33.05027 -120.6927,-123.78304 -15.7462,-90.73384 17.4275,-147.75486 71.9279,-157.21301 54.5004,-9.45809 104.9469,33.05122 120.693,123.78502 15.7461,90.73286 -17.4279,147.75289 -71.9282,157.21103" /><path
         d="m 4021.9258,615.22686 c 23.3761,11.41337 42.7449,14.72172 60.3306,17.33562 1.3917,-2.04084 2.2249,-3.2979 3.4369,-5.54254 1.8734,-3.46965 1.0466,-2.5909 2.2802,-6.14902 -18.4777,-2.47506 -36.3343,-6.71933 -60.0516,-18.29876 -28.8921,-14.10638 -41.3758,-27.40284 -54.5916,-41.47989 -13.895,-14.79957 -28.2637,-30.10254 -60.7264,-46.44484 -15.1439,-7.62428 -32.57,-10.02015 -49.493,-11.52484 -1.5546,2.22894 -0.6359,0.17809 -1.9725,2.65335 -1.8339,3.39658 -2.8809,5.96105 -4.101,9.4435 17.7828,1.05538 34.5823,4.53789 49.373,11.98516 29.6154,14.9095 42.2839,28.40249 55.6963,42.68797 13.7466,14.64092 27.9594,29.78022 59.8191,45.33429 M 3846.9892,500.40932 c 26.2802,-48.6734 90.8847,-62.01685 171.9167,-18.26531 81.0329,43.75203 105.3164,105.08891 79.0362,153.76221 -26.2802,48.6734 -90.8856,62.01655 -171.9184,18.26441 -81.032,-43.75154 -105.3146,-105.08793 -79.0345,-153.76131"
         style="fill:#524028;fill-opacity:1;fill-rule:nonzero;stroke:none"
         id="path8331"
         inkscape:connector-curvature="0" /><path
         inkscape:connector-curvature="0"
         id="path8333"
         style="fill:#43331c;fill-opacity:1;fill-rule:nonzero;stroke:none"
         d="m 3414.4369,531.78101 c 13.8624,-22.01237 19.2356,-40.91275 23.7265,-58.11503 -1.8792,-1.60329 -3.0393,-2.56691 -5.1404,-4.01344 -3.248,-2.23577 -2.4634,-1.31927 -5.868,-2.92857 -4.4489,18.10415 -10.5899,35.40034 -24.6541,57.73409 -17.1333,27.20645 -31.6957,38.18694 -47.1131,49.81135 -16.2088,12.22201 -32.969,24.86067 -52.7093,55.37639 -9.2095,14.2357 -13.4665,31.30281 -16.7834,47.96564 2.0487,1.78547 0.1086,0.65148 2.4257,2.24656 3.1795,2.18872 5.6165,3.50564 8.9474,5.09326 2.9626,-17.56593 8.2326,-33.89312 17.2281,-47.79673 18.0095,-27.8392 32.7873,-38.98234 48.4331,-50.77973 16.035,-12.09146 32.6157,-24.59278 51.5075,-54.59379 m -132.974,161.56659 c -45.5631,-31.36487 -51.8777,-97.03008 0.3389,-172.88397 52.2171,-75.85474 115.8108,-93.39746 161.3738,-62.03262 45.563,31.36498 51.8772,97.03098 -0.34,172.88563 -52.2165,75.85391 -115.8096,93.39581 -161.3727,62.03096" /><path
         inkscape:connector-curvature="0"
         id="path8335"
         style="fill:#69502e;fill-opacity:1;fill-rule:nonzero;stroke:none"
         d="m 4239.0883,811.54905 c -16.5599,-20.06191 -32.8247,-31.08701 -47.7534,-40.7421 -2.1114,1.2822 -3.39,2.0819 -5.4221,3.6241 -3.1409,2.3837 -2.0247,1.9257 -4.6198,4.65469 15.7983,9.8978 30.2991,21.1493 47.101,41.50351 20.4675,24.7956 26.3318,42.0655 32.5397,60.3489 6.5274,19.2222 13.2777,39.0987 36.0709,67.407 10.6329,13.2065 25.5065,22.5971 40.2908,30.9683 2.3375,-1.3861 0.6527,0.1009 2.8935,-1.5996 3.0748,-2.3336 5.089,-4.2351 7.6405,-6.9008 -15.753,-8.3178 -29.6065,-18.4385 -39.9911,-31.3377 -20.7938,-25.826 -26.7451,-43.3512 -33.0457,-61.9057 -6.4579,-19.0164 -13.134,-38.6793 -35.7043,-66.0206 m 111.7619,176.9043 c -44.0626,33.44015 -108.3993,18.86035 -164.0708,-54.4954 -55.6721,-73.3566 -52.4041,-139.24451 -8.3416,-172.6846 44.0626,-33.4401 108.4,-18.8596 164.072,54.497 55.6715,73.3558 52.4029,139.2429 8.3404,172.683" /><path
         d="m 4366.962,505.95675 c 14.1358,-21.83777 19.7443,-40.66969 24.4494,-57.81464 -1.8591,-1.62659 -3.0071,-2.6046 -5.0901,-4.0772 -3.2198,-2.2761 -2.4466,-1.34992 -5.831,-3.00152 -4.6743,18.04726 -11.0305,35.26552 -25.3721,57.42215 -17.4712,26.99068 -32.1695,37.78874 -47.7306,49.21998 -16.3599,12.0189 -33.2764,24.4476 -53.3958,54.7148 -9.3863,14.1197 -13.8558,31.1324 -17.3802,47.7526 2.0263,1.8108 0.1005,0.6527 2.3975,2.2766 3.152,2.2282 5.5723,3.5754 8.8832,5.2045 3.1815,-17.5277 8.6546,-33.7879 17.8228,-47.57819 18.3553,-27.61246 33.2709,-38.57045 49.0625,-50.17181 16.1846,-11.89059 32.9199,-24.18414 52.1844,-53.94727 m -134.9785,159.89587 c -45.1684,-31.9307 -50.6636,-97.6695 2.4948,-172.86635 53.159,-75.19768 116.9665,-91.946 162.1348,-60.01541 45.1684,31.93069 50.6632,97.67034 -2.4959,172.86796 -53.1584,75.1968 -116.9653,91.9443 -162.1337,60.0138"
         style="fill:#524028;fill-opacity:1;fill-rule:nonzero;stroke:none"
         id="path8337"
         inkscape:connector-curvature="0" /><path
         inkscape:connector-curvature="0"
         id="path8339"
         style="fill:#43331c;fill-opacity:1;fill-rule:nonzero;stroke:none"
         d="m 3879.1805,185.99832 c 22.55,-12.96951 36.1412,-27.16017 48.1582,-40.26279 -0.9108,-2.29618 -1.4853,-3.69058 -2.6656,-5.95204 -1.8246,-3.49551 -1.5599,-2.31842 -3.8161,-5.33357 -12.4018,13.91936 -25.9211,26.33301 -48.7998,39.49216 -27.8708,16.0299 -45.8784,18.92177 -64.9428,21.9828 -20.0435,3.21892 -40.7692,6.54814 -72.4924,24.28313 -14.7995,8.27317 -26.5465,21.36576 -37.2735,34.54086 0.9754,2.5365 -0.2088,0.6266 1.0929,3.1204 1.7861,3.4219 3.3238,5.7259 5.525,8.6874 10.8364,-14.139 23.1325,-26.10375 37.5875,-34.18353 28.9413,-16.17918 47.2153,-19.11406 66.5625,-22.22112 19.8288,-3.18485 40.3317,-6.47662 71.0641,-24.1537 m -193.1112,80.58485 c -25.5957,-49.03682 -0.456,-110.02689 81.181,-152.63887 81.6379,-42.61248 146.0501,-28.365535 171.6457,20.67121 25.5956,49.03689 0.4552,110.02748 -81.1827,152.63986 -81.637,42.612 -146.0483,28.3646 -171.644,-20.6722" /><path
         d="m 4390.1114,185.15873 c -5.4916,-25.42739 -14.8729,-42.69262 -23.6969,-58.12714 -2.4645,0.16882 -3.9676,0.29169 -6.481,0.72788 -3.885,0.6742 -2.6831,0.78022 -6.2419,2.01187 9.4848,16.04962 17.1953,32.70549 22.7676,58.50369 6.7876,31.42721 4.0619,49.46077 1.1759,68.55243 -3.0336,20.0723 -6.1698,40.82816 1.0696,76.4439 3.3768,16.61528 12.2733,31.78955 21.5589,46.01735 2.713,-0.15723 0.5334,0.38949 3.305,-0.0914 3.8032,-0.66006 6.4658,-1.42361 9.9568,-2.61907 -10.1705,-14.62543 -17.8256,-29.97951 -21.123,-46.20777 -6.604,-32.49233 -3.8384,-50.79266 -0.9101,-70.1677 3.0008,-19.85757 6.1048,-40.3896 -1.3809,-75.04402 m 17.9926,208.47567 c -54.5005,9.4581 -104.9467,-33.05027 -120.6927,-123.78304 -15.7462,-90.73381 17.4275,-147.75484 71.9279,-157.21299 54.5004,-9.45809 104.9469,33.05123 120.693,123.78501 15.7461,90.73285 -17.4279,147.75288 -71.9282,157.21102"
         style="fill:#69502e;fill-opacity:1;fill-rule:nonzero;stroke:none"
         id="path8341"
         inkscape:connector-curvature="0" /><path
         inkscape:connector-curvature="0"
         id="path8343"
         style="fill:#524028;fill-opacity:1;fill-rule:nonzero;stroke:none"
         d="m 3520.7547,254.28512 c 23.3761,11.41337 42.7449,14.72172 60.3306,17.33562 1.3917,-2.04084 2.2249,-3.2979 3.4369,-5.54254 1.8734,-3.46965 1.0466,-2.5909 2.2802,-6.14902 -18.4777,-2.47506 -36.3343,-6.71933 -60.0516,-18.29876 -28.8921,-14.10638 -41.3758,-27.40284 -54.5916,-41.47989 -13.895,-14.79957 -28.2637,-30.10254 -60.7264,-46.44484 -15.1439,-7.62428 -32.57,-10.02015 -49.493,-11.52484 -1.5546,2.22894 -0.6359,0.17809 -1.9725,2.65335 -1.8339,3.39658 -2.8809,5.96105 -4.101,9.4435 17.7828,1.05538 34.5823,4.53789 49.373,11.98516 29.6154,14.9095 42.2839,28.40249 55.6963,42.68797 13.7466,14.64092 27.9594,29.78022 59.8191,45.33429 M 3345.8181,139.46758 c 26.2802,-48.673396 90.8847,-62.016846 171.9167,-18.26531 81.0329,43.75203 105.3164,105.08891 79.0362,153.76221 -26.2802,48.6734 -90.8856,62.01655 -171.9184,18.26441 -81.032,-43.75154 -105.3146,-105.08793 -79.0345,-153.76131" /><path
         d="m 4137.589,246.50038 c 13.8624,-22.01237 19.2356,-40.91275 23.7265,-58.11503 -1.8792,-1.60329 -3.0393,-2.56691 -5.1404,-4.01344 -3.248,-2.23577 -2.4634,-1.31927 -5.868,-2.92857 -4.4489,18.10415 -10.5899,35.40034 -24.6541,57.73409 -17.1333,27.20645 -31.6957,38.18694 -47.1131,49.81135 -16.2088,12.22201 -32.969,24.86065 -52.7093,55.37637 -9.2095,14.2357 -13.4665,31.30282 -16.7834,47.96565 2.0487,1.78547 0.1086,0.65148 2.4257,2.24656 3.1795,2.18872 5.6165,3.50564 8.9474,5.09326 2.9626,-17.56593 8.2326,-33.89312 17.2281,-47.79674 18.0095,-27.8392 32.7873,-38.98234 48.4331,-50.77971 16.035,-12.09146 32.6157,-24.59278 51.5075,-54.59379 m -132.974,161.56658 c -45.5631,-31.36487 -51.8777,-97.03009 0.3389,-172.88396 52.2171,-75.85474 115.8108,-93.39746 161.3738,-62.03262 45.563,31.36498 51.8772,97.03098 -0.34,172.88561 -52.2165,75.85392 -115.8096,93.39582 -161.3727,62.03097"
         style="fill:#43331c;fill-opacity:1;fill-rule:nonzero;stroke:none"
         id="path8345"
         inkscape:connector-curvature="0" /></g></g></svg>