<?xml version="1.0" encoding="UTF-8" standalone="no"?>
<!-- Created with Inkscape (http://www.inkscape.org/) -->

<svg
   xmlns:dc="http://purl.org/dc/elements/1.1/"
   xmlns:cc="http://creativecommons.org/ns#"
   xmlns:rdf="http://www.w3.org/1999/02/22-rdf-syntax-ns#"
   xmlns:svg="http://www.w3.org/2000/svg"
   xmlns="http://www.w3.org/2000/svg"
   xmlns:sodipodi="http://sodipodi.sourceforge.net/DTD/sodipodi-0.dtd"
   xmlns:inkscape="http://www.inkscape.org/namespaces/inkscape"
   id="svg2"
   version="1.1"
   inkscape:version="0.91 r13725"
   xml:space="preserve"
   width="227.79665"
   height="300"
   viewBox="0 0 227.79665 300"
   sodipodi:docname="grano_cafe.svg"><metadata
     id="metadata8"><rdf:RDF><cc:Work
         rdf:about=""><dc:format>image/svg+xml</dc:format><dc:type
           rdf:resource="http://purl.org/dc/dcmitype/StillImage" /><dc:title></dc:title></cc:Work></rdf:RDF></metadata><defs
     id="defs6"><clipPath
       clipPathUnits="userSpaceOnUse"
       id="clipPath16"><path
         d="m 0,485.035 648.988,0 L 648.988,0 0,0 0,485.035 Z"
         id="path18"
         inkscape:connector-curvature="0" /></clipPath><clipPath
       clipPathUnits="userSpaceOnUse"
       id="clipPath24"><path
         d="M -4.88281e-4,485.036 648.988,485.036 648.988,0 -4.88281e-4,0 l 0,485.036 z"
         id="path26"
         inkscape:connector-curvature="0" /></clipPath><clipPath
       clipPathUnits="userSpaceOnUse"
       id="clipPath28"><path
         d="M 648.988,0 468.995,0 0,0 l 0,323.515 0,161.521 468.995,0 179.993,0 0,-161.521 0,-323.515 z"
         id="path30"
         inkscape:connector-curvature="0" /></clipPath><clipPath
       clipPathUnits="userSpaceOnUse"
       id="clipPath178"><path
         d="m 0,485.035 648.988,0 L 648.988,0 0,0 0,485.035 Z"
         id="path180"
         inkscape:connector-curvature="0" /></clipPath><clipPath
       clipPathUnits="userSpaceOnUse"
       id="clipPath476"><path
         d="m 0,0 648.988,0 0,44.668 C 648.705,44.542 578.265,13.177 405.034,13.177 l 0,0 c 0,0 -240.833,4.842 -405.034,37.552 l 0,0 L 0,0 Z"
         id="path478"
         inkscape:connector-curvature="0" /></clipPath><linearGradient
       x1="0"
       y1="0"
       x2="1"
       y2="0"
       gradientUnits="userSpaceOnUse"
       gradientTransform="matrix(0,-128.81136,-128.81136,0,324.49463,138.00098)"
       spreadMethod="pad"
       id="linearGradient484"><stop
         style="stop-opacity:1;stop-color:#9c5820"
         offset="0"
         id="stop486" /><stop
         style="stop-opacity:1;stop-color:#803308"
         offset="0.443817"
         id="stop488" /><stop
         style="stop-opacity:1;stop-color:#4e2005"
         offset="1"
         id="stop490" /></linearGradient><clipPath
       clipPathUnits="userSpaceOnUse"
       id="clipPath498"><path
         d="m 0,485.035 648.988,0 L 648.988,0 0,0 0,485.035 Z"
         id="path500"
         inkscape:connector-curvature="0" /></clipPath><clipPath
       clipPathUnits="userSpaceOnUse"
       id="clipPath506"><path
         d="m 0,159.407 648.989,0 0,-127.4822 -648.989,0 0,127.4822 z"
         id="path508"
         inkscape:connector-curvature="0" /></clipPath><clipPath
       clipPathUnits="userSpaceOnUse"
       id="clipPath522"><path
         d="M 0,73.605 0,50.586 C 87.576,31.205 350.301,14.245 350.301,14.245 l 0,0 C 556.357,5.78 648.662,44.39 648.988,44.526 l 0,0 0,18.177 C 553.598,23.934 369.06,80.874 369.06,80.874 l 0,0 c -68.803,21.802 -153.251,27.86 -153.251,27.86 l 0,0 c -15.983,2.375 -31.719,3.396 -46.968,3.396 l 0,0 C 75.182,112.129 0,73.605 0,73.605"
         id="path524"
         inkscape:connector-curvature="0" /></clipPath><linearGradient
       x1="0"
       y1="0"
       x2="1"
       y2="0"
       gradientUnits="userSpaceOnUse"
       gradientTransform="matrix(0,160.40343,160.40343,0,324.49463,-0.1435547)"
       spreadMethod="pad"
       id="linearGradient530"><stop
         style="stop-opacity:1;stop-color:#9c5820"
         offset="0"
         id="stop532" /><stop
         style="stop-opacity:1;stop-color:#803308"
         offset="0.443817"
         id="stop534" /><stop
         style="stop-opacity:1;stop-color:#4e2005"
         offset="1"
         id="stop536" /></linearGradient><clipPath
       clipPathUnits="userSpaceOnUse"
       id="clipPath544"><path
         d="M 0,103.773 0,73.49 c 40.664,21.802 118.853,35.13 118.853,35.13 l 0,0 C 214.243,124.37 369.06,80.759 369.06,80.759 l 0,0 C 568.867,22.717 648.697,62.443 648.988,62.588 l 0,0 0,16.961 -3.834,-0.394 C 582.601,65.833 436.31,130.429 436.31,130.429 l 0,0 C 370.632,161.922 279.926,175.25 279.926,175.25 l 0,0 c -9.801,0.971 -19.642,1.42 -29.499,1.42 l 0,0 C 125.032,176.663 0,103.773 0,103.773"
         id="path546"
         inkscape:connector-curvature="0" /></clipPath><linearGradient
       x1="0"
       y1="0"
       x2="1"
       y2="0"
       gradientUnits="userSpaceOnUse"
       gradientTransform="matrix(0,-53.764786,-53.764786,0,324.49463,146.7041)"
       spreadMethod="pad"
       id="linearGradient552"><stop
         style="stop-opacity:1;stop-color:#9c5820"
         offset="0"
         id="stop554" /><stop
         style="stop-opacity:1;stop-color:#803308"
         offset="0.443817"
         id="stop556" /><stop
         style="stop-opacity:1;stop-color:#4e2005"
         offset="1"
         id="stop558" /></linearGradient><clipPath
       clipPathUnits="userSpaceOnUse"
       id="clipPath566"><path
         d="m 0,485.035 648.988,0 L 648.988,0 0,0 0,485.035 Z"
         id="path568"
         inkscape:connector-curvature="0" /></clipPath><clipPath
       clipPathUnits="userSpaceOnUse"
       id="clipPath574"><path
         d="m 0,158.935 648.989,0 0,-122.9077 -648.989,0 0,122.9077 z"
         id="path576"
         inkscape:connector-curvature="0" /></clipPath><clipPath
       clipPathUnits="userSpaceOnUse"
       id="clipPath590"><path
         d="m 0,122.907 648.989,0 L 648.989,0 0,0 0,122.907 Z"
         id="path592"
         inkscape:connector-curvature="0" /></clipPath><clipPath
       clipPathUnits="userSpaceOnUse"
       id="clipPath594"><path
         d="M 216.346,57.166 C 326.126,46.707 367.023,28.95 419.705,17.287 446.04,11.366 474.987,5.318 516.605,1.73 c 20.815,-1.626 44.83,-2.695 73.292,-0.452 14.264,1.287 29.433,3.065 46.246,7.993 1.071,0.33 2.141,0.674 3.288,1.082 l 0.881,0.319 0.484,0.184 0.293,0.116 c -1.16,-2.174 12.159,19.585 6.488,10.458 l 1.411,1.434 0,5.8 0,5.907 -2.852,0.37 c -5.52,4.054 12.313,-8.813 -12.377,9.134 l -0.192,-0.019 -0.79,-0.115 c -0.662,-0.102 -0.739,-0.096 -1.899,-0.281 -0.917,-0.134 -1.797,-0.3 -2.74,-0.408 -7.483,-0.956 -15.857,-0.987 -24.626,-0.465 -35.334,2.498 -71.751,11.676 -107.122,21.746 -17.731,5.15 -35.334,10.739 -52.594,16.691 -4.219,1.492 -8.807,3.022 -12.581,4.539 -4.423,1.72 -8.859,3.352 -13.307,4.894 -8.897,3.098 -17.819,5.857 -26.729,8.387 -35.678,10.025 -70.973,16.794 -105.071,21.663 -35.779,4.321 -68.735,1.638 -99.213,-2.562 C 126.132,109.095 77.484,91.919 44.445,78.101 27.919,71.104 15.275,64.743 6.945,59.798 5.906,59.173 4.931,58.58 4.026,58 L 2.713,57.159 2.095,56.738 1.936,56.636 1.897,56.61 C 3.535,59.147 -0.378,53.118 0.03,53.724 L 0.042,53.646 0.1,53.31 c 0.306,-1.741 0.624,-3.206 0.95,-4.385 0.662,-2.364 1.369,-3.595 2.135,-3.595 0.758,0 1.472,1.231 2.135,3.595 0.331,1.179 0.649,2.644 0.955,4.385 l 0.058,0.336 0.012,0.078 C 6.69,54.277 3.37,49.116 4.797,51.309 l 0.038,0.012 0.166,0.051 0.688,0.204 1.473,0.458 c 1.013,0.307 2.09,0.652 3.231,1.021 9.139,2.944 22.325,7.591 39.119,13.077 33.543,10.804 81.725,25.8 140.245,33.384 28.986,3.537 61.413,5.532 93.171,1.415 33.09,-4.977 67.729,-11.765 101.979,-21.466 8.553,-2.434 17.068,-5.092 25.467,-8.018 4.207,-1.466 8.389,-2.995 12.519,-4.614 4.753,-1.886 8.934,-3.263 13.409,-4.844 17.667,-6.093 35.562,-11.77 53.701,-17.028 36.353,-10.248 73.268,-19.726 112.119,-22.537 9.752,-0.567 19.375,-0.586 29.024,0.677 1.199,0.146 2.421,0.369 3.62,0.553 -0.115,-0.012 0.88,0.128 1.261,0.185 l 0.792,0.115 0.191,0.032 c -24.703,17.992 -6.833,4.875 -12.339,8.846 l 0.037,-0.376 0.677,-5.895 0.662,-5.793 0.167,-1.435 c -5.673,-9.285 7.737,12.435 6.411,10.23 l -0.063,-0.02 -0.217,-0.089 -0.536,-0.197 c -0.74,-0.268 -1.58,-0.549 -2.41,-0.811 -13.817,-4.212 -28.322,-6.258 -41.528,-7.64 -26.665,-2.614 -49.864,-2.314 -70.067,-1.568 -40.458,1.772 -69.342,5.455 -95.779,9.069 -52.847,7.01 -95.822,20.509 -205.488,30.917 -47.608,4.027 -84.535,2.473 -111.819,-2.938 C 77.357,51.551 58.766,47.134 46.115,43.781 20.864,36.815 19.035,35.126 19.36,35.311 c -0.249,-0.389 1.785,0.816 27.086,7.317 12.684,3.116 31.281,7.316 58.61,11.88 27.175,5.213 63.784,6.673 111.29,2.658"
         id="path596"
         inkscape:connector-curvature="0" /></clipPath><linearGradient
       x1="0"
       y1="0"
       x2="1"
       y2="0"
       gradientUnits="userSpaceOnUse"
       gradientTransform="matrix(0,-104.41853,-104.41853,0,324.49463,178.64062)"
       spreadMethod="pad"
       id="linearGradient598"><stop
         style="stop-opacity:1;stop-color:#9c5820"
         offset="0"
         id="stop600" /><stop
         style="stop-opacity:1;stop-color:#803308"
         offset="0.443817"
         id="stop602" /><stop
         style="stop-opacity:1;stop-color:#4e2005"
         offset="1"
         id="stop604" /></linearGradient><clipPath
       clipPathUnits="userSpaceOnUse"
       id="clipPath624"><path
         d="M 259.133,350.978 C 237.075,293.222 248.458,235.221 284.56,221.432 l 0,0 c 36.098,-13.781 83.245,21.875 105.304,79.629 l 0,0 c 22.044,57.765 10.666,115.754 -25.437,129.545 l 0,0 c -5.244,2.002 -10.714,2.96 -16.314,2.959 l 0,0 c -32.948,-0.004 -70.135,-33.224 -88.98,-82.587"
         id="path626"
         inkscape:connector-curvature="0" /></clipPath><radialGradient
       fx="0"
       fy="0"
       cx="0"
       cy="0"
       r="1"
       gradientUnits="userSpaceOnUse"
       gradientTransform="matrix(105.39873,0,0,-105.39871,352.03906,361.2915)"
       spreadMethod="pad"
       id="radialGradient632"><stop
         style="stop-opacity:1;stop-color:#9c5820"
         offset="0"
         id="stop634" /><stop
         style="stop-opacity:1;stop-color:#803308"
         offset="1"
         id="stop636" /></radialGradient><clipPath
       clipPathUnits="userSpaceOnUse"
       id="clipPath644"><path
         d="m 0,485.035 648.988,0 L 648.988,0 0,0 0,485.035 Z"
         id="path646"
         inkscape:connector-curvature="0" /></clipPath><clipPath
       clipPathUnits="userSpaceOnUse"
       id="clipPath652"><path
         d="m 264.532,432.899 133.873,0 0,-166.24 -133.873,0 0,166.24 z"
         id="path654"
         inkscape:connector-curvature="0" /></clipPath><clipPath
       clipPathUnits="userSpaceOnUse"
       id="clipPath656"><path
         d="m 269.145,297.044 c 0.725,-1.912 1.533,-3.755 2.424,-5.527 5.416,-10.777 13.863,-18.807 25.008,-22.57 7.992,-2.697 16.601,-2.946 25.318,-1.082 5.431,1.162 10.904,3.14 16.294,5.857 1.54,0.776 3.075,1.611 4.6,2.506 18.361,10.775 35.318,29.996 45.795,54.264 5.168,11.972 8.232,23.957 9.344,35.295 1.328,13.545 -0.135,26.16 -4.137,36.72 -1.969,5.203 -4.559,9.907 -7.732,13.975 -5.098,6.533 -11.704,11.43 -19.7,14.131 -11.142,3.762 -23.494,2.756 -35.652,-2.088 -2,-0.797 -3.992,-1.695 -5.974,-2.693 -10.94,-5.514 -21.533,-14.059 -30.75,-24.94 -7.711,-9.107 -14.457,-19.85 -19.623,-31.822 -10.477,-24.266 -12.32,-48.588 -6.752,-67.445 0.461,-1.565 0.975,-3.092 1.537,-4.581"
         id="path658"
         inkscape:connector-curvature="0" /></clipPath><clipPath
       clipPathUnits="userSpaceOnUse"
       id="clipPath714"><path
         d="m 257.27,276.05 43.72,0 0,-39.654 -43.72,0 0,39.654 z"
         id="path716"
         inkscape:connector-curvature="0" /></clipPath><clipPath
       clipPathUnits="userSpaceOnUse"
       id="clipPath730"><path
         d="m 249.056,431.923 150.877,0 0,-211.808 -150.877,0 0,211.808 z"
         id="path732"
         inkscape:connector-curvature="0" /></clipPath><clipPath
       clipPathUnits="userSpaceOnUse"
       id="clipPath3514"><path
         d="m 353.599,429.785 c -0.56,-0.35 -1.099,-0.746 -1.616,-1.186 l 0,0 c -2.505,-2.123 -4.52,-5.27 -6.262,-9.113 l 0,0 c -5.141,-11.342 -7.899,-28.775 -13.731,-44.088 l 0,0 c -4.361,-11.447 -8.427,-26.279 -12.187,-44.496 l 0,0 c -3.772,-18.209 -7.507,-32.205 -11.234,-41.971 l 0,0 c -1.313,-3.451 -2.791,-6.928 -4.432,-10.433 l 0,0 c -2.74,-5.848 -5.936,-11.772 -9.588,-17.77 l 0,0 c -0.686,-1.168 -1.699,-2.475 -2.937,-3.855 l 0,0 c -7.887,-8.795 -24.947,-20.682 -25.432,-20.076 l 0,0 c 1.893,-2.368 4.369,-5.24 6.492,-7.272 l 0,0 c 1.532,-1.467 2.881,-2.494 3.697,-2.582 l 0,0 c 6.677,-0.691 11.804,2.687 15.942,8.332 l 0,0 c 9.416,12.848 13.713,37.445 19.479,52.568 l 0,0 c 4.456,11.709 8.597,26.742 12.42,45.102 l 0,0 c 3.821,18.371 7.483,32.154 10.991,41.352 l 0,0 c 5.797,15.224 18.889,27.916 27.737,39.363 l 0,0 c 3.798,4.916 6.813,9.603 8.132,14.164 l 0,0 c -0.012,-0.047 -0.301,0.095 -0.785,0.347 l 0,0 c -1.734,0.907 -5.996,3.235 -9.203,3.424 l 0,0 c -0.301,0.018 -0.598,0.026 -0.89,0.026 l 0,0 c -2.51,0.001 -4.684,-0.648 -6.593,-1.836"
         id="path3516"
         inkscape:connector-curvature="0" /></clipPath><clipPath
       clipPathUnits="userSpaceOnUse"
       id="clipPath3662"><path
         d="m 0,485.035 648.988,0 L 648.988,0 0,0 0,485.035 Z"
         id="path3664"
         inkscape:connector-curvature="0" /></clipPath><clipPath
       clipPathUnits="userSpaceOnUse"
       id="clipPath3670"><path
         d="m 247.886,433.565 120.536,0 0,-212.133 -120.536,0 0,212.133 z"
         id="path3672"
         inkscape:connector-curvature="0" /></clipPath><clipPath
       clipPathUnits="userSpaceOnUse"
       id="clipPath3686"><path
         d="m 352.045,430.267 c -0.564,-0.351 -1.105,-0.748 -1.627,-1.188 l 0,0 c -2.514,-2.131 -4.539,-5.282 -6.291,-9.136 l 0,0 c -5.165,-11.367 -7.936,-28.844 -13.795,-44.191 l 0,0 c -4.381,-11.475 -8.464,-26.342 -12.241,-44.602 l 0,0 c -3.789,-18.252 -7.543,-32.282 -11.286,-42.073 l 0,0 c -1.32,-3.458 -2.805,-6.942 -4.453,-10.457 l 0,0 c -2.752,-5.862 -5.963,-11.798 -9.632,-17.812 l 0,0 c -0.69,-1.17 -1.708,-2.478 -2.952,-3.863 l 0,0 c -7.924,-8.815 -25.063,-20.732 -25.551,-20.124 l 0,0 c 1.902,-2.374 4.389,-5.253 6.524,-7.29 l 0,0 c 1.539,-1.47 2.892,-2.5 3.712,-2.586 l 0,0 c 6.708,-0.695 11.86,2.692 16.017,8.352 l 0,0 c 9.46,12.878 13.777,37.533 19.567,52.69 l 0,0 c 4.479,11.739 8.639,26.81 12.481,45.21 l 0,0 c 3.837,18.414 7.517,32.23 11.038,41.449 l 0,0 c 5.827,15.262 18.981,27.983 27.866,39.457 l 0,0 c 3.818,4.928 6.85,9.627 8.174,14.197 l 0,0 c -0.014,-0.047 -0.303,0.098 -0.79,0.35 l 0,0 c -1.744,0.908 -6.025,3.242 -9.247,3.432 l 0,0 c -0.303,0.018 -0.602,0.027 -0.896,0.027 l 0,0 c -2.52,0 -4.702,-0.653 -6.618,-1.842"
         id="path3688"
         inkscape:connector-curvature="0" /></clipPath><clipPath
       clipPathUnits="userSpaceOnUse"
       id="clipPath4014"><path
         d="m 0,485.035 648.988,0 L 648.988,0 0,0 0,485.035 Z"
         id="path4016"
         inkscape:connector-curvature="0" /></clipPath><clipPath
       clipPathUnits="userSpaceOnUse"
       id="clipPath4022"><path
         d="m 268.08,236.329 9.469,0 0,-75.876 -9.469,0 0,75.876 z"
         id="path4024"
         inkscape:connector-curvature="0" /></clipPath><clipPath
       clipPathUnits="userSpaceOnUse"
       id="clipPath4026"><path
         d="m 268.298,230.221 c 0.559,-3.029 1.938,-5.866 2.29,-8.946 0.421,-3.644 0.014,-7.379 0.1,-11.041 0.131,-5.435 1.073,-10.795 1.359,-16.216 0.265,-5.006 -0.77,-9.733 -1.533,-14.647 -0.791,-5.098 -1.779,-11.9 0.707,-16.713 2.077,-4.019 4.587,-1.974 5.432,1.586 1.247,5.252 -0.158,11.012 -0.884,16.236 -0.755,5.42 -0.818,10.749 -0.641,16.208 0.177,5.458 -0.243,10.81 -0.412,16.255 -0.079,2.582 0.064,5.131 0.534,7.674 0.846,4.587 4.816,10.632 -0.165,14.251 -4.084,2.953 -7.446,1.243 -6.958,-3.47 0.04,-0.396 0.1,-0.789 0.171,-1.177"
         id="path4028"
         inkscape:connector-curvature="0" /></clipPath><linearGradient
       x1="0"
       y1="0"
       x2="1"
       y2="0"
       gradientUnits="userSpaceOnUse"
       gradientTransform="matrix(0,42.459747,42.459747,0,272.81494,171.87891)"
       spreadMethod="pad"
       id="linearGradient4030"><stop
         style="stop-opacity:1;stop-color:#803308"
         offset="0"
         id="stop4032" /><stop
         style="stop-opacity:1;stop-color:#000000"
         offset="1"
         id="stop4034" /></linearGradient><clipPath
       clipPathUnits="userSpaceOnUse"
       id="clipPath4054"><path
         d="m 267.239,236.729 6.938,0 0,-55.602 -6.938,0 0,55.602 z"
         id="path4056"
         inkscape:connector-curvature="0" /></clipPath><clipPath
       clipPathUnits="userSpaceOnUse"
       id="clipPath4058"><path
         d="m 267.398,232.252 c 0.41,-2.219 1.42,-4.297 1.678,-6.554 0.308,-2.671 0.01,-5.407 0.074,-8.093 0.096,-3.982 0.785,-7.908 0.996,-11.88 0.193,-3.672 -0.565,-7.133 -1.124,-10.735 -0.579,-3.736 -1.304,-8.72 0.518,-12.248 1.522,-2.945 3.361,-1.445 3.98,1.162 0.913,3.85 -0.115,8.071 -0.646,11.901 -0.555,3.97 -0.601,7.873 -0.471,11.875 0.13,4.002 -0.178,7.922 -0.301,11.912 -0.059,1.892 0.046,3.761 0.39,5.625 0.62,3.359 3.529,7.789 -0.12,10.442 -2.994,2.164 -5.457,0.909 -5.098,-2.544 0.028,-0.291 0.072,-0.576 0.124,-0.863"
         id="path4060"
         inkscape:connector-curvature="0" /></clipPath><linearGradient
       x1="0"
       y1="0"
       x2="1"
       y2="0"
       gradientUnits="userSpaceOnUse"
       gradientTransform="matrix(0,31.114304,31.114304,0,270.70801,189.5)"
       spreadMethod="pad"
       id="linearGradient4062"><stop
         style="stop-opacity:1;stop-color:#803308"
         offset="0"
         id="stop4064" /><stop
         style="stop-opacity:1;stop-color:#000000"
         offset="1"
         id="stop4066" /></linearGradient><clipPath
       clipPathUnits="userSpaceOnUse"
       id="clipPath4086"><path
         d="m 272.517,238.401 7.341,0 0,-58.835 -7.341,0 0,58.835 z"
         id="path4088"
         inkscape:connector-curvature="0" /></clipPath><clipPath
       clipPathUnits="userSpaceOnUse"
       id="clipPath4090"><path
         d="m 272.686,233.666 c 0.435,-2.348 1.502,-4.549 1.775,-6.936 0.327,-2.824 0.011,-5.722 0.079,-8.562 0.101,-4.215 0.831,-8.367 1.054,-12.572 0.203,-3.885 -0.598,-7.549 -1.19,-11.358 -0.612,-3.955 -1.38,-9.226 0.549,-12.961 1.611,-3.117 3.555,-1.531 4.211,1.229 0.966,4.076 -0.122,8.541 -0.685,12.592 -0.586,4.203 -0.635,8.334 -0.497,12.566 0.138,4.236 -0.189,8.383 -0.318,12.605 -0.064,2.002 0.047,3.979 0.413,5.951 0.654,3.555 3.733,8.244 -0.129,11.051 -3.167,2.288 -5.774,0.959 -5.394,-2.693 0.03,-0.307 0.076,-0.609 0.132,-0.912"
         id="path4092"
         inkscape:connector-curvature="0" /></clipPath><linearGradient
       x1="0"
       y1="0"
       x2="1"
       y2="0"
       gradientUnits="userSpaceOnUse"
       gradientTransform="matrix(0,32.923691,32.923691,0,276.18799,188.42676)"
       spreadMethod="pad"
       id="linearGradient4094"><stop
         style="stop-opacity:1;stop-color:#803308"
         offset="0"
         id="stop4096" /><stop
         style="stop-opacity:1;stop-color:#000000"
         offset="1"
         id="stop4098" /></linearGradient><clipPath
       clipPathUnits="userSpaceOnUse"
       id="clipPath4118"><path
         d="m 274.762,235.596 11.566,0 0,-74.18 -11.566,0 0,74.18 z"
         id="path4120"
         inkscape:connector-curvature="0" /></clipPath><clipPath
       clipPathUnits="userSpaceOnUse"
       id="clipPath4122"><path
         d="m 277.139,229.625 c 1.084,-2.96 2.67,-5.733 3.065,-8.746 0.468,-3.561 -0.19,-7.213 -0.525,-10.797 -0.49,-5.311 -0.528,-10.549 -1.086,-15.85 -0.514,-4.898 -2.154,-9.515 -3.098,-14.32 -1.053,-4.982 -1.482,-11.633 2.335,-16.34 3.25,-3.929 4.974,-1.929 4.915,1.549 -0.017,5.139 -1.649,10.77 -2.06,15.875 -0.447,5.299 0.294,10.506 1.341,15.844 1.046,5.34 1.543,10.57 1.871,15.894 0.151,2.524 0.424,5.016 0.871,7.502 0.889,4.484 3.927,10.394 -2.069,13.934 -4.96,2.885 -7.482,1.211 -5.951,-3.395 0.12,-0.386 0.252,-0.769 0.391,-1.15"
         id="path4124"
         inkscape:connector-curvature="0" /></clipPath><linearGradient
       x1="0"
       y1="0"
       x2="1"
       y2="0"
       gradientUnits="userSpaceOnUse"
       gradientTransform="matrix(0,41.510513,41.510513,0,280.54492,172.58691)"
       spreadMethod="pad"
       id="linearGradient4126"><stop
         style="stop-opacity:1;stop-color:#803308"
         offset="0"
         id="stop4128" /><stop
         style="stop-opacity:1;stop-color:#000000"
         offset="1"
         id="stop4130" /></linearGradient><clipPath
       clipPathUnits="userSpaceOnUse"
       id="clipPath7441"><path
         style="opacity:1;fill:#000000;fill-opacity:1;fill-rule:nonzero;stroke:none;stroke-width:1;stroke-miterlimit:4;stroke-dasharray:none;stroke-opacity:1"
         d="M 4.226194,2.5899463 C 4.0203042,2.983147 3.745946,3.4540348 3.4390779,3.6658567 3.17645,3.8471405 2.8048797,4.0191228 2.5394124,3.9982802 2.3517625,3.9835472 2.3118924,3.9400963 2.1446407,3.852519 1.4643111,3.4962813 1.2558513,2.2674805 1.7625029,1.2998958 2.1335847,0.59121767 2.7634149,0.059178 3.3335247,0.00612717 3.5418069,-0.01325433 3.6961867,0.01150783 3.8782292,0.10683 4.5585587,0.46306767 4.7328457,1.622362 4.226194,2.5899463 Z"
         id="path7443"
         inkscape:connector-curvature="0"
         sodipodi:nodetypes="ssssssss" /></clipPath></defs><sodipodi:namedview
     pagecolor="#ffffff"
     bordercolor="#666666"
     borderopacity="1"
     objecttolerance="10"
     gridtolerance="10"
     guidetolerance="10"
     inkscape:pageopacity="0"
     inkscape:pageshadow="2"
     inkscape:window-width="1366"
     inkscape:window-height="744"
     id="namedview4"
     showgrid="false"
     fit-margin-top="0"
     fit-margin-left="0"
     fit-margin-right="0"
     fit-margin-bottom="0"
     inkscape:zoom="0.27524149"
     inkscape:cx="617.26527"
     inkscape:cy="329.98038"
     inkscape:window-x="0"
     inkscape:window-y="24"
     inkscape:window-maximized="1"
     inkscape:current-layer="g10" /><g
     id="g10"
     inkscape:groupmode="layer"
     inkscape:label="FreeVector-Coffee-Background-Vector"
     transform="matrix(1.25,0,0,-1.25,535.9887,532.44013)"><g
       id="g7426"
       transform="matrix(60,0,0,-60,-517.6723,425.95211)"
       clip-path="url(#clipPath7441)"><rect
         id="rect7414"
         height="4"
         width="6"
         x="0"
         y="0"
         style="fill:#ce1126" /><rect
         id="rect7416"
         height="3"
         width="6"
         x="0"
         y="0"
         style="fill:#003893" /><rect
         id="rect7418"
         height="2"
         width="6"
         x="0"
         y="0"
         style="fill:#fcd116" /></g><g
       id="g174"><g
         id="g176"
         clip-path="url(#clipPath178)"><g
           id="g182"
           transform="translate(120.2134,-14.7412)"><path
             d="m 0,0 c -0.02,0.858 -0.779,1.464 -1.62,1.464 -1.852,0 -2.145,-1.579 -2.145,-2.984 0,-1.305 0.567,-2.652 1.973,-2.652 1.147,0 1.733,0.662 1.89,1.734 l 3.218,0 c -0.293,-2.708 -2.4,-4.271 -5.091,-4.271 -3.041,0 -5.304,2.089 -5.304,5.189 0,3.219 2.048,5.521 5.304,5.521 C 0.741,4.001 2.983,2.673 3.219,0 L 0,0 Z"
             style="fill:#000000;fill-opacity:1;fill-rule:nonzero;stroke:none"
             id="path184"
             inkscape:connector-curvature="0" /></g><g
           id="g186"
           transform="translate(128.8208,-10.8154)"><path
             d="m 0,0 c -3.126,0 -5.303,-2.313 -5.303,-5.345 0,-3.029 2.177,-5.324 5.303,-5.324 3.127,0 5.326,2.295 5.326,5.324 C 5.326,-2.313 3.127,0 0,0"
             style="fill:#000000;fill-opacity:1;fill-rule:nonzero;stroke:none"
             id="path188"
             inkscape:connector-curvature="0" /></g><g
           id="g190"
           transform="translate(111.4771,-18.3193)"><path
             d="m 0,0 c -0.86,0 -1.458,-0.636 -1.458,-1.468 0,-0.833 0.598,-1.462 1.458,-1.462 0.859,0 1.461,0.629 1.461,1.462 C 1.461,-0.636 0.859,0 0,0"
             style="fill:#000000;fill-opacity:1;fill-rule:nonzero;stroke:none"
             id="path192"
             inkscape:connector-curvature="0" /></g><g
           id="g194"
           transform="translate(134.3779,-11.4629)"><path
             d="m 0,0 3.139,0 0,-1.352 0.037,0 c 0.591,0.991 1.635,1.637 2.835,1.637 1.235,0 2.338,-0.398 2.87,-1.598 0.781,1.046 1.749,1.598 3.081,1.598 3.139,0 3.48,-2.377 3.48,-4.262 l 0,-5.892 -3.234,0 0,5.8 c 0,1.064 -0.512,1.69 -1.349,1.69 -1.388,0 -1.521,-1.062 -1.521,-2.661 l 0,-4.829 -3.233,0 0,5.609 c 0,1.159 -0.343,1.881 -1.216,1.881 -1.162,0 -1.654,-0.665 -1.654,-2.681 l 0,-4.809 L 0,-9.869 0,0 Z"
             style="fill:#000000;fill-opacity:1;fill-rule:nonzero;stroke:none"
             id="path196"
             inkscape:connector-curvature="0" /></g><g
           id="g198"
           transform="translate(68.6528,-21.2285)"><path
             d="m 0,0 -3.686,0 -3.256,9.762 3.33,0 1.786,-6.454 0.038,0 1.807,6.454 3.257,0 L 0,0 Z"
             style="fill:#000000;fill-opacity:1;fill-rule:nonzero;stroke:none"
             id="path200"
             inkscape:connector-curvature="0" /></g><g
           id="g202"
           transform="translate(73.6675,-17.1309)"><path
             d="m 0,0 c 0.056,-1.335 0.831,-2.219 2.184,-2.219 0.767,0 1.52,0.361 1.818,1.073 l 2.993,0 C 6.414,-3.403 4.324,-4.383 2.142,-4.383 c -3.177,0 -5.341,1.922 -5.341,5.193 0,2.99 2.392,5.133 5.267,5.133 3.498,0 5.25,-2.631 5.1,-5.943 L 0,0 Z"
             style="fill:#000000;fill-opacity:1;fill-rule:nonzero;stroke:none"
             id="path204"
             inkscape:connector-curvature="0" /></g><g
           id="g206"
           transform="translate(87.6758,-15.041)"><path
             d="m 0,0 c -0.02,0.827 -0.752,1.412 -1.562,1.412 -1.788,0 -2.068,-1.528 -2.068,-2.881 0,-1.261 0.547,-2.558 1.903,-2.558 1.107,0 1.668,0.64 1.823,1.676 l 3.1,0 c -0.279,-2.614 -2.314,-4.122 -4.907,-4.122 -2.934,0 -5.113,2.014 -5.113,5.004 0,3.105 1.973,5.323 5.113,5.323 C 0.713,3.854 2.878,2.575 3.104,0 L 0,0 Z"
             style="fill:#000000;fill-opacity:1;fill-rule:nonzero;stroke:none"
             id="path208"
             inkscape:connector-curvature="0" /></g><g
           id="g210"
           transform="translate(96.9478,-13.5371)"><path
             d="m 0,0 -1.971,0 0,-4.439 c 0,-0.772 0.451,-0.941 1.145,-0.941 0.262,0 0.548,0.039 0.826,0.039 l 0,-2.35 c -0.58,-0.018 -1.161,-0.096 -1.749,-0.096 -2.726,0 -3.422,0.79 -3.422,3.445 l 0,4.342 -1.617,0 0,2.07 1.617,0 0,2.952 3.2,0 0,-2.952 L 0,2.07 0,0 Z"
             style="fill:#000000;fill-opacity:1;fill-rule:nonzero;stroke:none"
             id="path212"
             inkscape:connector-curvature="0" /></g><g
           id="g214"
           transform="translate(101.3389,-11.1875)"><path
             d="m 0,0 c -3.027,0 -5.135,-2.239 -5.135,-5.17 0,-2.935 2.108,-5.156 5.135,-5.156 3.027,0 5.153,2.221 5.153,5.156 C 5.153,-2.239 3.027,0 0,0"
             style="fill:#000000;fill-opacity:1;fill-rule:nonzero;stroke:none"
             id="path216"
             inkscape:connector-curvature="0" /></g><g
           id="g218"
           transform="translate(106.2773,-11.4668)"><path
             d="m 0,0 3.107,0 0,-1.711 0.035,0 c 0.47,1.236 1.558,1.899 2.933,1.899 0.243,0 0.507,-0.024 0.751,-0.074 l 0,-2.915 C 6.414,-2.693 6.038,-2.62 5.603,-2.62 4.024,-2.62 3.197,-3.708 3.197,-4.927 l 0,-4.835 L 0,-9.762 0,0 Z"
             style="fill:#000000;fill-opacity:1;fill-rule:nonzero;stroke:none"
             id="path220"
             inkscape:connector-curvature="0" /></g><g
           id="g222"
           transform="translate(36.5967,-11.4668)"><path
             d="m 0,0 3.106,0 0,-1.711 0.037,0 c 0.468,1.236 1.561,1.899 2.935,1.899 0.244,0 0.509,-0.024 0.749,-0.074 l 0,-2.915 C 6.415,-2.693 6.042,-2.62 5.604,-2.62 4.029,-2.62 3.198,-3.708 3.198,-4.927 l 0,-4.835 L 0,-9.762 0,0 Z"
             style="fill:#000000;fill-opacity:1;fill-rule:nonzero;stroke:none"
             id="path224"
             inkscape:connector-curvature="0" /></g><g
           id="g226"
           transform="translate(45.4766,-17.1309)"><path
             d="m 0,0 c 0.055,-1.335 0.825,-2.219 2.181,-2.219 0.769,0 1.524,0.361 1.823,1.073 l 2.993,0 C 6.411,-3.403 4.326,-4.383 2.145,-4.383 -1.036,-4.383 -3.2,-2.461 -3.2,0.81 -3.2,3.8 -0.81,5.943 2.07,5.943 5.568,5.943 7.315,3.312 7.166,0 L 0,0 Z"
             style="fill:#000000;fill-opacity:1;fill-rule:nonzero;stroke:none"
             id="path228"
             inkscape:connector-curvature="0" /></g><g
           id="g230"
           transform="translate(55.5596,-17.1309)"><path
             d="m 0,0 c 0.055,-1.335 0.826,-2.219 2.182,-2.219 0.769,0 1.522,0.361 1.823,1.073 l 2.991,0 c -0.582,-2.257 -2.67,-3.237 -4.851,-3.237 -3.179,0 -5.341,1.922 -5.341,5.193 0,2.99 2.384,5.133 5.266,5.133 C 5.567,5.943 7.317,3.312 7.167,0 L 0,0 Z"
             style="fill:#000000;fill-opacity:1;fill-rule:nonzero;stroke:none"
             id="path232"
             inkscape:connector-curvature="0" /></g><g
           id="g234"
           transform="translate(36.0156,-10.0605)"><path
             d="m 0,0 c 0.283,0 0.564,-0.018 0.864,-0.055 l 0,2.259 c -0.509,0.02 -1.035,0.055 -1.543,0.055 -2.725,0 -3.704,-0.865 -3.704,-3.665 l -1.541,0 0,-2.071 1.541,0 0,-7.691 3.195,0 0,7.691 1.919,0 0,2.071 -1.919,0 0,0.431 C -1.188,-0.092 -0.735,0 0,0"
             style="fill:#000000;fill-opacity:1;fill-rule:nonzero;stroke:none"
             id="path236"
             inkscape:connector-curvature="0" /></g><g
           id="g238"
           transform="translate(26.939,-14.5703)"><path
             d="m 0,0 c 0,-3.982 -3.228,-7.212 -7.211,-7.212 -3.983,0 -7.212,3.23 -7.212,7.212 0,3.981 3.229,7.21 7.212,7.21 C -3.228,7.21 0,3.981 0,0"
             style="fill:#ffffff;fill-opacity:1;fill-rule:nonzero;stroke:none"
             id="path240"
             inkscape:connector-curvature="0" /></g><g
           id="g242"
           transform="translate(22.23,-17.8486)"><path
             d="m 0,0 0.019,-0.013 c 0,0 -0.007,0.005 -0.013,0.01 -0.001,0 -0.004,0 -0.006,0.003 m -3.204,1.693 c -0.35,-0.123 -0.816,0.196 -1.023,0.356 -0.177,0.203 -1.242,1.338 -1.365,1.48 -0.266,0.307 -0.063,0.942 0.594,1.161 0.186,0.063 0.471,0.068 0.644,-0.125 0.776,-0.928 1.586,-1.918 1.646,-2.109 0.1,-0.333 -0.084,-0.62 -0.496,-0.763 m 0.682,8.825 c -0.659,0 -1.294,-0.086 -1.9,-0.246 0.249,-0.021 0.412,-0.178 0.497,-0.492 0,0 1.356,-4.485 1.518,-4.989 0.159,-0.506 0.35,-1.059 0.35,-1.059 C -2.164,3.643 -2.262,3.529 -2.336,3.38 -2.476,3.089 -2.552,2.853 -2.585,2.617 c -0.21,0.36 -1.033,1.368 -1.589,2.04 0,0 -0.036,0.446 -0.155,0.873 -0.12,0.425 -0.886,3.309 -0.886,3.309 C -5.351,9.375 -5.294,9.841 -5,10.094 -7.829,9.093 -9.854,6.425 -9.854,3.286 c 0,-2.85 1.674,-5.315 4.108,-6.493 -0.25,0.366 -0.538,0.937 -0.673,1.743 -0.224,1.325 -0.268,2.183 -0.436,2.922 -0.223,0.988 -0.156,1.217 0.184,1.652 0.168,0.215 0.359,0.348 0.537,0.407 0.178,0.047 0.362,-0.059 0.43,-0.135 C -5.276,2.924 -4.458,2.044 -4.358,1.919 -4.16,1.687 -4.133,1.395 -4.28,1.047 -4.338,0.906 -4.498,0.843 -4.623,0.813 -4.906,0.747 -5.227,0.806 -5.337,0.9 c -0.23,0.193 -1.35,1.217 -1.35,1.166 0,-0.269 0.833,-0.928 1.229,-1.305 0.161,-0.157 0.558,-0.201 0.879,-0.126 0.238,0.056 0.4,0.174 0.471,0.343 0.11,0.259 0.135,0.501 0.076,0.717 0.26,-0.15 0.595,-0.278 0.891,-0.176 0.288,0.1 0.462,0.255 0.556,0.422 0.019,-0.192 0.05,-0.407 0.091,-0.663 0.099,-0.646 0.22,-1.007 0.293,-1.222 0.027,-0.08 0.054,-0.163 0.051,-0.189 -0.002,-0.005 -0.005,-0.009 -0.011,-0.014 -0.17,-0.239 -0.422,-0.628 -0.582,-1.111 -0.106,-0.321 -0.186,-0.758 -0.196,-1.169 -0.005,-0.144 0,-0.367 0.042,-0.367 0.044,10e-4 0.038,0.228 0.054,0.367 0.045,0.416 0.112,0.835 0.233,1.137 0.159,0.392 0.37,0.712 0.6,1.035 0.01,0.012 0.015,0.021 0.02,0.026 0.053,0.079 0.024,0.166 -0.034,0.341 -0.072,0.211 -0.188,0.562 -0.288,1.195 -0.143,0.933 -0.198,1.284 0.145,1.993 0.276,0.576 1.01,0.583 1.168,0.517 0.061,-0.033 0.065,-0.384 0.072,-0.697 0.008,-0.349 0.015,-0.782 0.073,-1.309 0.072,-0.665 0.344,-1.184 0.589,-1.486 0.199,-0.24 0.358,-0.347 0.397,-0.31 0.037,0.036 -0.136,0.167 -0.313,0.443 -0.196,0.304 -0.421,0.763 -0.488,1.373 -0.058,0.517 -0.065,0.948 -0.071,1.294 -0.012,0.526 -0.016,0.789 -0.187,0.86 -0.085,0.037 -0.264,0.057 -0.47,0.03 l 1.353,4.533 c 0.236,0.817 0.485,1.151 1.007,1.098 0.005,0 0.01,-0.004 0.017,-0.005 -1.041,0.558 -2.233,0.877 -3.502,0.877"
             style="fill:#000000;fill-opacity:1;fill-rule:nonzero;stroke:none"
             id="path244"
             inkscape:connector-curvature="0" /></g><g
           id="g246"
           transform="translate(23.603,-8.4375)"><path
             d="m 0,0 c 0.174,-0.181 0.245,-0.433 0.171,-0.7 l -1.215,-5.404 c -0.074,-0.419 -0.197,-1.288 -0.086,-1.881 0.149,-0.809 0.468,-1.9 0.235,-3.106 -0.125,-0.64 -0.318,-1.336 -0.641,-1.878 2.889,0.969 4.97,3.667 4.97,6.844 C 3.434,-3.544 2.063,-1.279 0,0"
             style="fill:#000000;fill-opacity:1;fill-rule:nonzero;stroke:none"
             id="path248"
             inkscape:connector-curvature="0" /></g><path
           d="m 164.256,-11.693 2.498,0 0,-9.587 -2.498,0 0,9.587 z"
           style="fill:#000000;fill-opacity:1;fill-rule:nonzero;stroke:none"
           id="path250"
           inkscape:connector-curvature="0" /><g
           id="g252"
           transform="translate(168.3911,-14.3115)"><path
             d="m 0,0 2.215,0 0,-0.953 0.027,0 c 0.416,0.699 1.155,1.155 2.001,1.155 0.873,0 1.652,-0.282 2.028,-1.128 0.55,0.738 1.235,1.128 2.175,1.128 2.216,0 2.457,-1.679 2.457,-3.008 l 0,-4.163 -2.282,0 0,4.096 c 0,0.752 -0.363,1.194 -0.954,1.194 -0.98,0 -1.074,-0.751 -1.074,-1.879 l 0,-3.411 -2.283,0 0,3.961 c 0,0.82 -0.242,1.329 -0.859,1.329 -0.819,0 -1.169,-0.469 -1.169,-1.892 l 0,-3.398 L 0,-6.969 0,0 Z"
             style="fill:#000000;fill-opacity:1;fill-rule:nonzero;stroke:none"
             id="path254"
             inkscape:connector-curvature="0" /></g><g
           id="g256"
           transform="translate(183.6812,-20.0713)"><path
             d="M 0,0 C 1.088,0 1.451,0.617 1.396,2.055 1.075,1.853 0.483,1.813 -0.013,1.678 -0.524,1.557 -0.954,1.343 -0.954,0.792 -0.954,0.228 -0.51,0 0,0 m -2.954,3.611 c 0.04,0.913 0.47,1.505 1.087,1.868 0.618,0.348 1.424,0.483 2.216,0.483 1.652,0 3.25,-0.362 3.25,-2.337 l 0,-3.048 c 0,-0.591 0,-1.236 0.269,-1.786 l -2.297,0 c -0.08,0.214 -0.107,0.43 -0.134,0.658 -0.591,-0.618 -1.463,-0.859 -2.296,-0.859 -1.329,0 -2.377,0.671 -2.377,2.107 0,2.271 2.47,2.095 4.055,2.417 0.389,0.081 0.605,0.216 0.605,0.646 0,0.523 -0.632,0.724 -1.102,0.724 -0.631,0 -1.033,-0.281 -1.141,-0.873 l -2.135,0 z"
             style="fill:#000000;fill-opacity:1;fill-rule:nonzero;stroke:none"
             id="path258"
             inkscape:connector-curvature="0" /></g><g
           id="g260"
           transform="translate(191.9907,-15.8555)"><path
             d="m 0,0 c -1.007,0 -1.33,-0.886 -1.33,-1.745 0,-0.819 0.376,-1.639 1.316,-1.639 0.967,0 1.384,0.751 1.384,1.625 C 1.37,-0.872 1.02,0 0,0 m 3.532,-4.579 c 0,-1.142 -0.215,-3.29 -3.478,-3.29 -1.625,0 -3.156,0.362 -3.425,2.229 l 2.283,0 c 0.054,-0.308 0.174,-0.497 0.389,-0.604 0.202,-0.108 0.484,-0.148 0.833,-0.148 1.088,0 1.196,0.766 1.196,1.625 l 0,0.658 -0.027,0 c -0.417,-0.644 -1.115,-1.02 -1.854,-1.02 -2.108,0 -3.061,1.503 -3.061,3.464 0,1.853 1.088,3.411 3.061,3.411 0.833,0 1.464,-0.362 1.867,-1.075 l 0.027,0 0,0.873 2.189,0 0,-6.123 z"
             style="fill:#000000;fill-opacity:1;fill-rule:nonzero;stroke:none"
             id="path262"
             inkscape:connector-curvature="0" /></g><g
           id="g264"
           transform="translate(201.7637,-17.0771)"><path
             d="M 0,0 C -0.041,0.779 -0.591,1.423 -1.357,1.423 -2.162,1.423 -2.7,0.846 -2.833,0 L 0,0 Z m -2.833,-1.275 c 0.04,-0.954 0.59,-1.585 1.557,-1.585 0.55,0 1.088,0.255 1.303,0.765 l 2.135,0 c -0.416,-1.612 -1.907,-2.309 -3.465,-2.309 -2.269,0 -3.813,1.369 -3.813,3.706 0,2.135 1.705,3.666 3.759,3.666 2.498,0 3.747,-1.881 3.639,-4.243 l -5.115,0 z"
             style="fill:#000000;fill-opacity:1;fill-rule:nonzero;stroke:none"
             id="path266"
             inkscape:connector-curvature="0" /></g><g
           id="g268"
           transform="translate(206.9575,-18.9844)"><path
             d="m 0,0 c 0,-0.349 0.147,-0.604 0.376,-0.778 0.215,-0.162 0.523,-0.243 0.846,-0.243 0.443,0 1.074,0.188 1.074,0.74 0,0.537 -0.712,0.643 -1.115,0.737 -1.436,0.363 -3.236,0.403 -3.236,2.284 0,1.679 1.813,2.135 3.182,2.135 1.531,0 3.13,-0.443 3.21,-2.257 l -2.108,0 c 0,0.296 -0.107,0.485 -0.295,0.605 -0.188,0.121 -0.444,0.174 -0.726,0.174 -0.375,0 -0.98,-0.04 -0.98,-0.523 0,-0.658 1.531,-0.779 2.578,-1.007 1.41,-0.282 1.773,-1.303 1.773,-1.881 0,-1.866 -1.773,-2.483 -3.344,-2.483 -1.652,0 -3.343,0.551 -3.41,2.497 L 0,0 Z"
             style="fill:#000000;fill-opacity:1;fill-rule:nonzero;stroke:none"
             id="path270"
             inkscape:connector-curvature="0" /></g><g
           id="g272"
           transform="translate(219.7363,-20.0713)"><path
             d="M 0,0 C 1.088,0 1.451,0.617 1.396,2.055 1.075,1.853 0.483,1.813 -0.013,1.678 -0.524,1.557 -0.954,1.343 -0.954,0.792 -0.954,0.228 -0.51,0 0,0 m -2.954,3.611 c 0.04,0.913 0.47,1.505 1.087,1.868 0.618,0.348 1.424,0.483 2.216,0.483 1.652,0 3.25,-0.362 3.25,-2.337 l 0,-3.048 c 0,-0.591 0,-1.236 0.269,-1.786 l -2.297,0 c -0.08,0.214 -0.107,0.43 -0.134,0.658 -0.591,-0.618 -1.463,-0.859 -2.296,-0.859 -1.329,0 -2.377,0.671 -2.377,2.107 0,2.271 2.47,2.095 4.055,2.417 0.389,0.081 0.605,0.216 0.605,0.646 0,0.523 -0.632,0.724 -1.102,0.724 -0.631,0 -1.033,-0.281 -1.141,-0.873 l -2.135,0 z"
             style="fill:#000000;fill-opacity:1;fill-rule:nonzero;stroke:none"
             id="path274"
             inkscape:connector-curvature="0" /></g><g
           id="g276"
           transform="translate(224.917,-14.3115)"><path
             d="m 0,0 2.215,0 0,-1.222 0.027,0 c 0.336,0.886 1.115,1.357 2.095,1.357 0.175,0 0.363,-0.014 0.538,-0.054 l 0,-2.081 c -0.296,0.08 -0.564,0.134 -0.873,0.134 -1.128,0 -1.719,-0.78 -1.719,-1.652 l 0,-3.451 L 0,-6.969 0,0 Z"
             style="fill:#000000;fill-opacity:1;fill-rule:nonzero;stroke:none"
             id="path278"
             inkscape:connector-curvature="0" /></g><g
           id="g280"
           transform="translate(235.0933,-17.0771)"><path
             d="M 0,0 C -0.041,0.779 -0.591,1.423 -1.357,1.423 -2.162,1.423 -2.7,0.846 -2.833,0 L 0,0 Z m -2.833,-1.275 c 0.04,-0.954 0.59,-1.585 1.557,-1.585 0.55,0 1.088,0.255 1.303,0.765 l 2.135,0 c -0.416,-1.612 -1.907,-2.309 -3.465,-2.309 -2.269,0 -3.814,1.369 -3.814,3.706 0,2.135 1.706,3.666 3.76,3.666 2.498,0 3.747,-1.881 3.639,-4.243 l -5.115,0 z"
             style="fill:#000000;fill-opacity:1;fill-rule:nonzero;stroke:none"
             id="path282"
             inkscape:connector-curvature="0" /></g><g
           id="g284"
           transform="translate(244.9448,-17.7227)"><path
             d="m 0,0 c 0,-1.222 0.349,-2.013 1.383,-2.013 1.02,0 1.37,1.06 1.37,2.013 0,0.887 -0.35,1.867 -1.357,1.867 C 0.778,1.867 0,1.438 0,0 m -2.202,3.411 2.175,0 0,-0.806 0.027,0 c 0.443,0.659 1.114,1.008 1.92,1.008 2.189,0 3.115,-1.881 3.115,-3.841 0,-1.812 -0.966,-3.531 -2.94,-3.531 -0.86,0 -1.517,0.321 -1.988,0.953 l -0.026,0 0,-3.088 -2.283,0 0,9.305 z"
             style="fill:#000000;fill-opacity:1;fill-rule:nonzero;stroke:none"
             id="path286"
             inkscape:connector-curvature="0" /></g><g
           id="g288"
           transform="translate(251.2798,-14.3115)"><path
             d="m 0,0 2.215,0 0,-1.222 0.027,0 c 0.336,0.886 1.115,1.357 2.095,1.357 0.175,0 0.363,-0.014 0.538,-0.054 l 0,-2.081 c -0.296,0.08 -0.564,0.134 -0.873,0.134 -1.128,0 -1.719,-0.78 -1.719,-1.652 l 0,-3.451 L 0,-6.969 0,0 Z"
             style="fill:#000000;fill-opacity:1;fill-rule:nonzero;stroke:none"
             id="path290"
             inkscape:connector-curvature="0" /></g><g
           id="g292"
           transform="translate(260.0054,-19.7354)"><path
             d="M 0,0 C 1.061,0 1.397,1.047 1.397,1.933 1.397,2.819 1.061,3.88 0,3.88 -1.061,3.88 -1.383,2.819 -1.383,1.933 -1.383,1.047 -1.061,0 0,0 m 0,5.626 c 2.162,0 3.68,-1.599 3.68,-3.693 0,-2.095 -1.518,-3.679 -3.68,-3.679 -2.162,0 -3.666,1.584 -3.666,3.679 0,2.094 1.504,3.693 3.666,3.693"
             style="fill:#000000;fill-opacity:1;fill-rule:nonzero;stroke:none"
             id="path294"
             inkscape:connector-curvature="0" /></g><g
           id="g296"
           transform="translate(267.0796,-17.7227)"><path
             d="m 0,0 c 0,-1.222 0.349,-2.013 1.383,-2.013 1.02,0 1.37,1.06 1.37,2.013 0,0.887 -0.35,1.867 -1.357,1.867 C 0.778,1.867 0,1.438 0,0 m -2.202,3.411 2.175,0 0,-0.806 0.027,0 c 0.443,0.659 1.114,1.008 1.92,1.008 2.189,0 3.115,-1.881 3.115,-3.841 0,-1.812 -0.966,-3.531 -2.94,-3.531 -0.86,0 -1.518,0.321 -1.988,0.953 l -0.027,0 0,-3.088 -2.282,0 0,9.305 z"
             style="fill:#000000;fill-opacity:1;fill-rule:nonzero;stroke:none"
             id="path298"
             inkscape:connector-curvature="0" /></g><g
           id="g300"
           transform="translate(278.1143,-17.0771)"><path
             d="M 0,0 C -0.041,0.779 -0.591,1.423 -1.356,1.423 -2.162,1.423 -2.7,0.846 -2.833,0 L 0,0 Z m -2.833,-1.275 c 0.04,-0.954 0.59,-1.585 1.557,-1.585 0.55,0 1.088,0.255 1.302,0.765 l 2.136,0 c -0.416,-1.612 -1.907,-2.309 -3.465,-2.309 -2.269,0 -3.814,1.369 -3.814,3.706 0,2.135 1.706,3.666 3.761,3.666 2.497,0 3.746,-1.881 3.638,-4.243 l -5.115,0 z"
             style="fill:#000000;fill-opacity:1;fill-rule:nonzero;stroke:none"
             id="path302"
             inkscape:connector-curvature="0" /></g><g
           id="g304"
           transform="translate(281.6157,-14.3115)"><path
             d="m 0,0 2.216,0 0,-1.222 0.026,0 c 0.336,0.886 1.115,1.357 2.095,1.357 0.175,0 0.363,-0.014 0.538,-0.054 l 0,-2.081 c -0.296,0.08 -0.564,0.134 -0.873,0.134 -1.128,0 -1.719,-0.78 -1.719,-1.652 l 0,-3.451 L 0,-6.969 0,0 Z"
             style="fill:#000000;fill-opacity:1;fill-rule:nonzero;stroke:none"
             id="path306"
             inkscape:connector-curvature="0" /></g><g
           id="g308"
           transform="translate(291.457,-15.7881)"><path
             d="m 0,0 -1.41,0 0,-3.17 c 0,-0.55 0.322,-0.671 0.819,-0.671 0.188,0 0.389,0.028 0.591,0.028 l 0,-1.679 c -0.417,-0.014 -0.833,-0.068 -1.249,-0.068 -1.947,0 -2.444,0.564 -2.444,2.458 l 0,3.102 -1.155,0 0,1.477 1.155,0 0,2.108 2.283,0 0,-2.108 1.41,0 L 0,0 Z"
             style="fill:#000000;fill-opacity:1;fill-rule:nonzero;stroke:none"
             id="path310"
             inkscape:connector-curvature="0" /></g><g
           id="g312"
           transform="translate(296.2754,-21.8975)"><path
             d="m 0,0 c -0.55,-1.531 -1.369,-1.719 -2.914,-1.719 l -1.074,0 0,1.853 0.792,0 c 0.524,0 0.914,0.296 0.914,0.779 0,0.376 -0.444,1.449 -0.578,1.825 l -1.799,4.848 2.417,0 1.316,-4.538 0.027,0 1.316,4.538 2.336,0 L 0,0 Z"
             style="fill:#000000;fill-opacity:1;fill-rule:nonzero;stroke:none"
             id="path314"
             inkscape:connector-curvature="0" /></g><g
           id="g316"
           transform="translate(307.2422,-19.7354)"><path
             d="M 0,0 C 1.061,0 1.397,1.047 1.397,1.933 1.397,2.819 1.061,3.88 0,3.88 -1.061,3.88 -1.383,2.819 -1.383,1.933 -1.383,1.047 -1.061,0 0,0 m 0,5.626 c 2.162,0 3.679,-1.599 3.679,-3.693 0,-2.095 -1.517,-3.679 -3.679,-3.679 -2.162,0 -3.666,1.584 -3.666,3.679 0,2.094 1.504,3.693 3.666,3.693"
             style="fill:#000000;fill-opacity:1;fill-rule:nonzero;stroke:none"
             id="path318"
             inkscape:connector-curvature="0" /></g><g
           id="g320"
           transform="translate(312.6108,-15.7881)"><path
             d="m 0,0 -1.101,0 0,1.477 1.101,0 c 0,2.001 0.698,2.618 2.645,2.618 0.363,0 0.739,-0.027 1.101,-0.04 l 0,-1.612 C 3.531,2.471 3.33,2.484 3.128,2.484 2.605,2.484 2.283,2.417 2.283,1.786 l 0,-0.309 1.369,0 0,-1.477 -1.369,0 0,-5.492 L 0,-5.492 0,0 Z"
             style="fill:#000000;fill-opacity:1;fill-rule:nonzero;stroke:none"
             id="path322"
             inkscape:connector-curvature="0" /></g><g
           id="g324"
           transform="translate(325.5117,-15.7881)"><path
             d="m 0,0 -1.41,0 0,-3.17 c 0,-0.55 0.323,-0.671 0.819,-0.671 0.188,0 0.39,0.028 0.591,0.028 l 0,-1.679 c -0.416,-0.014 -0.833,-0.068 -1.249,-0.068 -1.947,0 -2.443,0.564 -2.443,2.458 l 0,3.102 -1.155,0 0,1.477 1.155,0 0,2.108 2.282,0 0,-2.108 1.41,0 L 0,0 Z"
             style="fill:#000000;fill-opacity:1;fill-rule:nonzero;stroke:none"
             id="path326"
             inkscape:connector-curvature="0" /></g><g
           id="g328"
           transform="translate(326.5313,-11.6934)"><path
             d="m 0,0 2.282,0 0,-3.571 0.027,0 c 0.349,0.712 1.289,1.155 2.122,1.155 2.323,0 2.51,-1.692 2.51,-2.7 l 0,-4.471 -2.283,0 0,3.37 c 0,0.953 0.109,1.92 -1.14,1.92 -0.86,0 -1.236,-0.724 -1.236,-1.49 l 0,-3.8 L 0,-9.587 0,0 Z"
             style="fill:#000000;fill-opacity:1;fill-rule:nonzero;stroke:none"
             id="path330"
             inkscape:connector-curvature="0" /></g><g
           id="g332"
           transform="translate(339.7686,-17.0771)"><path
             d="M 0,0 C -0.04,0.779 -0.592,1.423 -1.357,1.423 -2.163,1.423 -2.7,0.846 -2.834,0 L 0,0 Z m -2.834,-1.275 c 0.04,-0.954 0.591,-1.585 1.558,-1.585 0.55,0 1.088,0.255 1.302,0.765 l 2.135,0 c -0.416,-1.612 -1.906,-2.309 -3.465,-2.309 -2.269,0 -3.812,1.369 -3.812,3.706 0,2.135 1.705,3.666 3.759,3.666 2.498,0 3.747,-1.881 3.638,-4.243 l -5.115,0 z"
             style="fill:#000000;fill-opacity:1;fill-rule:nonzero;stroke:none"
             id="path334"
             inkscape:connector-curvature="0" /></g><g
           id="g336"
           transform="translate(349.3652,-17.7227)"><path
             d="m 0,0 c 0,-0.953 0.349,-2.013 1.396,-2.013 1.114,0 1.356,1.06 1.356,1.947 0,1.006 -0.363,1.933 -1.356,1.933 C 0.349,1.867 0,0.887 0,0 m 4.953,-3.558 -2.174,0 0,0.806 -0.027,0 C 2.309,-3.41 1.637,-3.759 0.831,-3.759 c -2.188,0 -3.114,1.88 -3.114,3.84 0,1.814 0.967,3.532 2.939,3.532 0.86,0 1.519,-0.322 1.989,-0.954 l 0.027,0 0,3.37 2.281,0 0,-9.587 z"
             style="fill:#000000;fill-opacity:1;fill-rule:nonzero;stroke:none"
             id="path338"
             inkscape:connector-curvature="0" /></g><g
           id="g340"
           transform="translate(360.6543,-17.0771)"><path
             d="M 0,0 C -0.04,0.779 -0.592,1.423 -1.357,1.423 -2.162,1.423 -2.699,0.846 -2.832,0 L 0,0 Z m -2.832,-1.275 c 0.039,-0.954 0.589,-1.585 1.557,-1.585 0.55,0 1.087,0.255 1.302,0.765 l 2.135,0 c -0.416,-1.612 -1.907,-2.309 -3.465,-2.309 -2.268,0 -3.812,1.369 -3.812,3.706 0,2.135 1.705,3.666 3.758,3.666 2.498,0 3.748,-1.881 3.64,-4.243 l -5.115,0 z"
             style="fill:#000000;fill-opacity:1;fill-rule:nonzero;stroke:none"
             id="path342"
             inkscape:connector-curvature="0" /></g><g
           id="g344"
           transform="translate(365.8486,-18.9844)"><path
             d="m 0,0 c 0,-0.349 0.147,-0.604 0.376,-0.778 0.215,-0.162 0.523,-0.243 0.846,-0.243 0.443,0 1.074,0.188 1.074,0.74 0,0.537 -0.713,0.643 -1.114,0.737 -1.438,0.363 -3.238,0.403 -3.238,2.284 0,1.679 1.814,2.135 3.184,2.135 1.53,0 3.129,-0.443 3.209,-2.257 l -2.108,0 c 0,0.296 -0.107,0.485 -0.294,0.605 -0.19,0.121 -0.446,0.174 -0.727,0.174 -0.375,0 -0.979,-0.04 -0.979,-0.523 0,-0.658 1.53,-0.779 2.578,-1.007 1.409,-0.282 1.772,-1.303 1.772,-1.881 0,-1.866 -1.772,-2.483 -3.344,-2.483 -1.652,0 -3.343,0.551 -3.41,2.497 L 0,0 Z"
             style="fill:#000000;fill-opacity:1;fill-rule:nonzero;stroke:none"
             id="path346"
             inkscape:connector-curvature="0" /></g><path
           d="m 371.62,-14.312 2.284,0 0,-6.969 -2.284,0 0,6.969 z m 2.284,0.874 -2.284,0 0,1.745 2.284,0 0,-1.745 z"
           style="fill:#000000;fill-opacity:1;fill-rule:nonzero;stroke:none"
           id="path348"
           inkscape:connector-curvature="0" /><g
           id="g350"
           transform="translate(378.7217,-15.8555)"><path
             d="m 0,0 c -1.007,0 -1.329,-0.886 -1.329,-1.745 0,-0.819 0.375,-1.639 1.315,-1.639 0.968,0 1.384,0.751 1.384,1.625 C 1.37,-0.872 1.021,0 0,0 m 3.532,-4.579 c 0,-1.142 -0.215,-3.29 -3.478,-3.29 -1.625,0 -3.155,0.362 -3.424,2.229 l 2.283,0 c 0.053,-0.308 0.174,-0.497 0.389,-0.604 0.202,-0.108 0.484,-0.148 0.833,-0.148 1.088,0 1.195,0.766 1.195,1.625 l 0,0.658 -0.026,0 c -0.417,-0.644 -1.116,-1.02 -1.854,-1.02 -2.109,0 -3.062,1.503 -3.062,3.464 0,1.853 1.088,3.411 3.062,3.411 0.833,0 1.463,-0.362 1.867,-1.075 l 0.026,0 0,0.873 2.189,0 0,-6.123 z"
             style="fill:#000000;fill-opacity:1;fill-rule:nonzero;stroke:none"
             id="path352"
             inkscape:connector-curvature="0" /></g><g
           id="g354"
           transform="translate(383.7148,-14.3115)"><path
             d="m 0,0 2.215,0 0,-0.953 0.027,0 c 0.417,0.712 1.357,1.155 2.19,1.155 2.322,0 2.511,-1.692 2.511,-2.7 l 0,-4.471 -2.284,0 0,3.37 c 0,0.953 0.108,1.92 -1.14,1.92 -0.86,0 -1.238,-0.724 -1.238,-1.49 l 0,-3.8 L 0,-6.969 0,0 Z"
             style="fill:#000000;fill-opacity:1;fill-rule:nonzero;stroke:none"
             id="path356"
             inkscape:connector-curvature="0" /></g><g
           id="g358"
           transform="translate(396.9521,-17.0771)"><path
             d="M 0,0 C -0.04,0.779 -0.591,1.423 -1.356,1.423 -2.162,1.423 -2.7,0.846 -2.834,0 L 0,0 Z m -2.834,-1.275 c 0.04,-0.954 0.591,-1.585 1.558,-1.585 0.55,0 1.088,0.255 1.302,0.765 l 2.135,0 c -0.416,-1.612 -1.906,-2.309 -3.464,-2.309 -2.27,0 -3.813,1.369 -3.813,3.706 0,2.135 1.705,3.666 3.76,3.666 2.498,0 3.746,-1.881 3.638,-4.243 l -5.116,0 z"
             style="fill:#000000;fill-opacity:1;fill-rule:nonzero;stroke:none"
             id="path360"
             inkscape:connector-curvature="0" /></g><g
           id="g362"
           transform="translate(400.4531,-14.3115)"><path
             d="m 0,0 2.217,0 0,-1.222 0.026,0 c 0.335,0.886 1.114,1.357 2.095,1.357 0.174,0 0.363,-0.014 0.537,-0.054 l 0,-2.081 c -0.296,0.08 -0.564,0.134 -0.872,0.134 -1.13,0 -1.719,-0.78 -1.719,-1.652 l 0,-3.451 L 0,-6.969 0,0 Z"
             style="fill:#000000;fill-opacity:1;fill-rule:nonzero;stroke:none"
             id="path364"
             inkscape:connector-curvature="0" /></g><path
           d="m 404.963,-18.782 2.498,0 0,-2.498 -2.498,0 0,2.498 z"
           style="fill:#000000;fill-opacity:1;fill-rule:nonzero;stroke:none"
           id="path366"
           inkscape:connector-curvature="0" /><g
           id="g368"
           transform="translate(422.7256,-15.1172)"><path
             d="m 0,0 c -0.136,0.968 -0.886,1.478 -1.935,1.478 -1.609,0 -2.228,-1.424 -2.228,-2.847 0,-1.424 0.619,-2.847 2.228,-2.847 1.169,0 1.841,0.671 1.935,1.773 l 2.498,0 c -0.136,-2.471 -1.948,-3.921 -4.38,-3.921 -2.899,0 -4.779,2.216 -4.779,4.995 0,2.78 1.88,4.995 4.779,4.995 2.07,0 4.311,-1.315 4.38,-3.626 L 0,0 Z"
             style="fill:#000000;fill-opacity:1;fill-rule:nonzero;stroke:none"
             id="path370"
             inkscape:connector-curvature="0" /></g><g
           id="g372"
           transform="translate(426.4551,-11.6934)"><path
             d="m 0,0 2.283,0 0,-3.571 0.027,0 c 0.348,0.712 1.288,1.155 2.12,1.155 2.324,0 2.511,-1.692 2.511,-2.7 l 0,-4.471 -2.281,0 0,3.37 c 0,0.953 0.108,1.92 -1.142,1.92 -0.86,0 -1.235,-0.724 -1.235,-1.49 l 0,-3.8 L 0,-9.587 0,0 Z"
             style="fill:#000000;fill-opacity:1;fill-rule:nonzero;stroke:none"
             id="path374"
             inkscape:connector-curvature="0" /></g><g
           id="g376"
           transform="translate(439.6914,-17.0771)"><path
             d="M 0,0 C -0.039,0.779 -0.591,1.423 -1.356,1.423 -2.162,1.423 -2.698,0.846 -2.834,0 L 0,0 Z m -2.834,-1.275 c 0.04,-0.954 0.592,-1.585 1.559,-1.585 0.55,0 1.086,0.255 1.302,0.765 l 2.135,0 c -0.416,-1.612 -1.906,-2.309 -3.465,-2.309 -2.267,0 -3.812,1.369 -3.812,3.706 0,2.135 1.705,3.666 3.759,3.666 2.498,0 3.745,-1.881 3.638,-4.243 l -5.116,0 z"
             style="fill:#000000;fill-opacity:1;fill-rule:nonzero;stroke:none"
             id="path378"
             inkscape:connector-curvature="0" /></g><g
           id="g380"
           transform="translate(447.6504,-16.8623)"><path
             d="m 0,0 c -0.014,0.591 -0.535,1.007 -1.113,1.007 -1.276,0 -1.479,-1.088 -1.479,-2.055 0,-0.899 0.391,-1.825 1.358,-1.825 0.793,0 1.194,0.456 1.301,1.194 l 2.216,0 c -0.2,-1.866 -1.651,-2.94 -3.504,-2.94 -2.093,0 -3.652,1.436 -3.652,3.571 0,2.216 1.408,3.801 3.652,3.801 C 0.512,2.753 2.057,1.84 2.217,0 L 0,0 Z"
             style="fill:#000000;fill-opacity:1;fill-rule:nonzero;stroke:none"
             id="path382"
             inkscape:connector-curvature="0" /></g><g
           id="g384"
           transform="translate(451.0732,-11.6934)"><path
             d="m 0,0 2.283,0 0,-4.94 2.081,2.322 2.645,0 -2.551,-2.632 2.875,-4.337 -2.755,0 -1.706,2.807 -0.589,-0.578 0,-2.229 L 0,-9.587 0,0 Z"
             style="fill:#000000;fill-opacity:1;fill-rule:nonzero;stroke:none"
             id="path386"
             inkscape:connector-curvature="0" /></g><path
           d="m 463.342,-11.693 2.281,0 0,-9.587 -2.281,0 0,9.587 z"
           style="fill:#000000;fill-opacity:1;fill-rule:nonzero;stroke:none"
           id="path388"
           inkscape:connector-curvature="0" /><path
           d="m 467.316,-14.312 2.281,0 0,-6.969 -2.281,0 0,6.969 z m 2.282,0.874 -2.281,0 0,1.745 2.281,0 0,-1.745 z"
           style="fill:#000000;fill-opacity:1;fill-rule:nonzero;stroke:none"
           id="path390"
           inkscape:connector-curvature="0" /><g
           id="g392"
           transform="translate(475.7471,-16.8623)"><path
             d="m 0,0 c -0.013,0.591 -0.538,1.007 -1.114,1.007 -1.277,0 -1.477,-1.088 -1.477,-2.055 0,-0.899 0.388,-1.825 1.355,-1.825 0.792,0 1.196,0.456 1.303,1.194 l 2.217,0 c -0.203,-1.866 -1.652,-2.94 -3.508,-2.94 -2.093,0 -3.651,1.436 -3.651,3.571 0,2.216 1.411,3.801 3.651,3.801 C 0.511,2.753 2.054,1.84 2.215,0 L 0,0 Z"
             style="fill:#000000;fill-opacity:1;fill-rule:nonzero;stroke:none"
             id="path394"
             inkscape:connector-curvature="0" /></g><g
           id="g396"
           transform="translate(483.9492,-17.0771)"><path
             d="M 0,0 C -0.041,0.779 -0.592,1.423 -1.357,1.423 -2.163,1.423 -2.699,0.846 -2.835,0 L 0,0 Z m -2.835,-1.275 c 0.04,-0.954 0.591,-1.585 1.558,-1.585 0.551,0 1.088,0.255 1.303,0.765 l 2.134,0 c -0.414,-1.612 -1.906,-2.309 -3.464,-2.309 -2.268,0 -3.813,1.369 -3.813,3.706 0,2.135 1.706,3.666 3.76,3.666 2.498,0 3.746,-1.881 3.638,-4.243 l -5.116,0 z"
             style="fill:#000000;fill-opacity:1;fill-rule:nonzero;stroke:none"
             id="path398"
             inkscape:connector-curvature="0" /></g><g
           id="g400"
           transform="translate(487.3691,-14.3115)"><path
             d="m 0,0 2.217,0 0,-0.953 0.027,0 c 0.414,0.712 1.356,1.155 2.188,1.155 2.324,0 2.511,-1.692 2.511,-2.7 l 0,-4.471 -2.283,0 0,3.37 c 0,0.953 0.108,1.92 -1.142,1.92 -0.86,0 -1.235,-0.724 -1.235,-1.49 l 0,-3.8 L 0,-6.969 0,0 Z"
             style="fill:#000000;fill-opacity:1;fill-rule:nonzero;stroke:none"
             id="path402"
             inkscape:connector-curvature="0" /></g><g
           id="g404"
           transform="translate(497.5977,-18.9844)"><path
             d="M 0,0 C 0,-0.349 0.148,-0.604 0.377,-0.778 0.592,-0.94 0.9,-1.021 1.223,-1.021 c 0.443,0 1.074,0.188 1.074,0.74 0,0.537 -0.711,0.643 -1.113,0.737 -1.438,0.363 -3.237,0.403 -3.237,2.284 0,1.679 1.813,2.135 3.182,2.135 1.529,0 3.129,-0.443 3.209,-2.257 l -2.108,0 C 2.23,2.914 2.123,3.103 1.934,3.223 1.746,3.344 1.492,3.397 1.211,3.397 0.834,3.397 0.229,3.357 0.229,2.874 0.229,2.216 1.76,2.095 2.807,1.867 4.217,1.585 4.58,0.564 4.58,-0.014 c 0,-1.866 -1.773,-2.483 -3.344,-2.483 -1.65,0 -3.343,0.551 -3.41,2.497 L 0,0 Z"
             style="fill:#000000;fill-opacity:1;fill-rule:nonzero;stroke:none"
             id="path406"
             inkscape:connector-curvature="0" /></g><g
           id="g408"
           transform="translate(508.0703,-17.0771)"><path
             d="M 0,0 C -0.041,0.779 -0.59,1.423 -1.355,1.423 -2.162,1.423 -2.699,0.846 -2.834,0 L 0,0 Z m -2.834,-1.275 c 0.041,-0.954 0.592,-1.585 1.559,-1.585 0.548,0 1.087,0.255 1.302,0.765 l 2.135,0 c -0.416,-1.612 -1.908,-2.309 -3.465,-2.309 -2.269,0 -3.814,1.369 -3.814,3.706 0,2.135 1.705,3.666 3.762,3.666 2.498,0 3.746,-1.881 3.638,-4.243 l -5.117,0 z"
             style="fill:#000000;fill-opacity:1;fill-rule:nonzero;stroke:none"
             id="path410"
             inkscape:connector-curvature="0" /></g><g
           id="g412"
           transform="translate(516.2168,-15.7881)"><path
             d="m 0,0 -1.102,0 0,1.477 1.102,0 c 0,2.001 0.697,2.618 2.645,2.618 0.363,0 0.738,-0.027 1.103,-0.04 l 0,-1.612 C 3.531,2.471 3.33,2.484 3.129,2.484 2.604,2.484 2.283,2.417 2.283,1.786 l 0,-0.309 1.369,0 0,-1.477 -1.369,0 0,-5.492 L 0,-5.492 0,0 Z"
             style="fill:#000000;fill-opacity:1;fill-rule:nonzero;stroke:none"
             id="path414"
             inkscape:connector-curvature="0" /></g><g
           id="g416"
           transform="translate(524.0176,-19.7354)"><path
             d="M 0,0 C 1.061,0 1.396,1.047 1.396,1.933 1.396,2.819 1.061,3.88 0,3.88 -1.063,3.88 -1.383,2.819 -1.383,1.933 -1.383,1.047 -1.063,0 0,0 m 0,5.626 c 2.162,0 3.68,-1.599 3.68,-3.693 0,-2.095 -1.518,-3.679 -3.68,-3.679 -2.162,0 -3.666,1.584 -3.666,3.679 0,2.094 1.504,3.693 3.666,3.693"
             style="fill:#000000;fill-opacity:1;fill-rule:nonzero;stroke:none"
             id="path418"
             inkscape:connector-curvature="0" /></g><g
           id="g420"
           transform="translate(528.9688,-14.3115)"><path
             d="m 0,0 2.215,0 0,-1.222 0.027,0 c 0.338,0.886 1.115,1.357 2.096,1.357 0.174,0 0.361,-0.014 0.537,-0.054 l 0,-2.081 c -0.295,0.08 -0.564,0.134 -0.873,0.134 -1.129,0 -1.719,-0.78 -1.719,-1.652 l 0,-3.451 L 0,-6.969 0,0 Z"
             style="fill:#000000;fill-opacity:1;fill-rule:nonzero;stroke:none"
             id="path422"
             inkscape:connector-curvature="0" /></g><g
           id="g424"
           transform="translate(541.0371,-17.7227)"><path
             d="m 0,0 c 0,-1.222 0.35,-2.013 1.383,-2.013 1.019,0 1.371,1.06 1.371,2.013 0,0.887 -0.352,1.867 -1.358,1.867 C 0.779,1.867 0,1.438 0,0 m -2.203,3.411 2.178,0 0,-0.806 0.025,0 c 0.443,0.659 1.115,1.008 1.92,1.008 2.187,0 3.117,-1.881 3.117,-3.841 0,-1.812 -0.969,-3.531 -2.943,-3.531 -0.86,0 -1.518,0.321 -1.987,0.953 l -0.025,0 0,-3.088 -2.285,0 0,9.305 z"
             style="fill:#000000;fill-opacity:1;fill-rule:nonzero;stroke:none"
             id="path426"
             inkscape:connector-curvature="0" /></g><g
           id="g428"
           transform="translate(552.0723,-17.0771)"><path
             d="M 0,0 C -0.041,0.779 -0.59,1.423 -1.355,1.423 -2.16,1.423 -2.699,0.846 -2.832,0 L 0,0 Z m -2.832,-1.275 c 0.039,-0.954 0.59,-1.585 1.557,-1.585 0.55,0 1.087,0.255 1.302,0.765 l 2.135,0 c -0.416,-1.612 -1.908,-2.309 -3.463,-2.309 -2.271,0 -3.814,1.369 -3.814,3.706 0,2.135 1.705,3.666 3.76,3.666 2.498,0 3.746,-1.881 3.638,-4.243 l -5.115,0 z"
             style="fill:#000000;fill-opacity:1;fill-rule:nonzero;stroke:none"
             id="path430"
             inkscape:connector-curvature="0" /></g><g
           id="g432"
           transform="translate(555.5742,-14.3115)"><path
             d="m 0,0 2.215,0 0,-1.222 0.027,0 c 0.338,0.886 1.115,1.357 2.096,1.357 0.174,0 0.361,-0.014 0.537,-0.054 l 0,-2.081 c -0.295,0.08 -0.564,0.134 -0.873,0.134 -1.129,0 -1.719,-0.78 -1.719,-1.652 l 0,-3.451 L 0,-6.969 0,0 Z"
             style="fill:#000000;fill-opacity:1;fill-rule:nonzero;stroke:none"
             id="path434"
             inkscape:connector-curvature="0" /></g><g
           id="g436"
           transform="translate(561.2129,-14.3115)"><path
             d="m 0,0 2.215,0 0,-0.953 0.027,0 c 0.416,0.699 1.154,1.155 2,1.155 0.873,0 1.653,-0.282 2.028,-1.128 0.55,0.738 1.236,1.128 2.175,1.128 2.217,0 2.459,-1.679 2.459,-3.008 l 0,-4.163 -2.285,0 0,4.096 c 0,0.752 -0.361,1.194 -0.953,1.194 -0.978,0 -1.072,-0.751 -1.072,-1.879 l 0,-3.411 -2.283,0 0,3.961 c 0,0.82 -0.243,1.329 -0.862,1.329 -0.818,0 -1.166,-0.469 -1.166,-1.892 l 0,-3.398 L 0,-6.969 0,0 Z"
             style="fill:#000000;fill-opacity:1;fill-rule:nonzero;stroke:none"
             id="path438"
             inkscape:connector-curvature="0" /></g><path
           d="m 573.723,-14.312 2.283,0 0,-6.969 -2.283,0 0,6.969 z m 2.283,0.874 -2.283,0 0,1.745 2.283,0 0,-1.745 z"
           style="fill:#000000;fill-opacity:1;fill-rule:nonzero;stroke:none"
           id="path440"
           inkscape:connector-curvature="0" /><g
           id="g442"
           transform="translate(581.8184,-15.7881)"><path
             d="m 0,0 -1.41,0 0,-3.17 c 0,-0.55 0.324,-0.671 0.818,-0.671 0.19,0 0.391,0.028 0.592,0.028 l 0,-1.679 c -0.414,-0.014 -0.832,-0.068 -1.248,-0.068 -1.947,0 -2.443,0.564 -2.443,2.458 l 0,3.102 -1.157,0 0,1.477 1.157,0 0,2.108 2.281,0 0,-2.108 1.41,0 L 0,0 Z"
             style="fill:#000000;fill-opacity:1;fill-rule:nonzero;stroke:none"
             id="path444"
             inkscape:connector-curvature="0" /></g><g
           id="g446"
           transform="translate(587.041,-15.7881)"><path
             d="m 0,0 -1.412,0 0,-3.17 c 0,-0.55 0.324,-0.671 0.82,-0.671 0.19,0 0.391,0.028 0.592,0.028 l 0,-1.679 c -0.416,-0.014 -0.834,-0.068 -1.248,-0.068 -1.949,0 -2.445,0.564 -2.445,2.458 l 0,3.102 -1.157,0 0,1.477 1.157,0 0,2.108 2.281,0 0,-2.108 L 0,1.477 0,0 Z"
             style="fill:#000000;fill-opacity:1;fill-rule:nonzero;stroke:none"
             id="path448"
             inkscape:connector-curvature="0" /></g><g
           id="g450"
           transform="translate(592.8398,-17.0771)"><path
             d="M 0,0 C -0.041,0.779 -0.592,1.423 -1.357,1.423 -2.162,1.423 -2.699,0.846 -2.834,0 L 0,0 Z m -2.834,-1.275 c 0.039,-0.954 0.592,-1.585 1.557,-1.585 0.552,0 1.088,0.255 1.304,0.765 l 2.133,0 c -0.414,-1.612 -1.906,-2.309 -3.463,-2.309 -2.269,0 -3.812,1.369 -3.812,3.706 0,2.135 1.705,3.666 3.758,3.666 2.498,0 3.746,-1.881 3.638,-4.243 l -5.115,0 z"
             style="fill:#000000;fill-opacity:1;fill-rule:nonzero;stroke:none"
             id="path452"
             inkscape:connector-curvature="0" /></g><g
           id="g454"
           transform="translate(598.207,-17.7227)"><path
             d="m 0,0 c 0,-0.953 0.35,-2.013 1.396,-2.013 1.116,0 1.358,1.06 1.358,1.947 0,1.006 -0.363,1.933 -1.358,1.933 C 0.35,1.867 0,0.887 0,0 m 4.955,-3.558 -2.174,0 0,0.806 -0.027,0 C 2.311,-3.41 1.639,-3.759 0.832,-3.759 c -2.187,0 -3.113,1.88 -3.113,3.84 0,1.814 0.967,3.532 2.939,3.532 0.86,0 1.518,-0.322 1.987,-0.954 l 0.029,0 0,3.37 2.281,0 0,-9.587 z"
             style="fill:#000000;fill-opacity:1;fill-rule:nonzero;stroke:none"
             id="path456"
             inkscape:connector-curvature="0" /></g><g
           id="g458"
           transform="translate(615.875,-21.2803)"><path
             d="m 0,0 -2.215,0 0,0.953 -0.027,0 c -0.43,-0.711 -1.315,-1.154 -2.121,-1.154 -2.002,0 -2.578,1.154 -2.578,2.98 l 0,4.19 2.281,0 0,-4.041 c 0,-0.927 0.404,-1.249 1.129,-1.249 0.496,0 1.248,0.322 1.248,1.557 l 0,3.733 L 0,6.969 0,0 Z"
             style="fill:#000000;fill-opacity:1;fill-rule:nonzero;stroke:none"
             id="path460"
             inkscape:connector-curvature="0" /></g><g
           id="g462"
           transform="translate(619.1758,-18.9844)"><path
             d="m 0,0 c 0,-0.349 0.146,-0.604 0.375,-0.778 0.215,-0.162 0.523,-0.243 0.846,-0.243 0.443,0 1.074,0.188 1.074,0.74 0,0.537 -0.711,0.643 -1.113,0.737 -1.438,0.363 -3.239,0.403 -3.239,2.284 0,1.679 1.813,2.135 3.184,2.135 1.531,0 3.129,-0.443 3.211,-2.257 l -2.109,0 c 0,0.296 -0.108,0.485 -0.295,0.605 -0.188,0.121 -0.446,0.174 -0.727,0.174 -0.375,0 -0.978,-0.04 -0.978,-0.523 0,-0.658 1.531,-0.779 2.578,-1.007 1.41,-0.282 1.771,-1.303 1.771,-1.881 0,-1.866 -1.771,-2.483 -3.344,-2.483 -1.652,0 -3.343,0.551 -3.41,2.497 L 0,0 Z"
             style="fill:#000000;fill-opacity:1;fill-rule:nonzero;stroke:none"
             id="path464"
             inkscape:connector-curvature="0" /></g><g
           id="g466"
           transform="translate(629.6465,-17.0771)"><path
             d="M 0,0 C -0.039,0.779 -0.59,1.423 -1.355,1.423 -2.162,1.423 -2.697,0.846 -2.834,0 L 0,0 Z m -2.834,-1.275 c 0.041,-0.954 0.592,-1.585 1.559,-1.585 0.55,0 1.086,0.255 1.302,0.765 l 2.135,0 c -0.416,-1.612 -1.906,-2.309 -3.465,-2.309 -2.267,0 -3.812,1.369 -3.812,3.706 0,2.135 1.705,3.666 3.76,3.666 2.498,0 3.746,-1.881 3.638,-4.243 l -5.117,0 z"
             style="fill:#000000;fill-opacity:1;fill-rule:nonzero;stroke:none"
             id="path468"
             inkscape:connector-curvature="0" /></g><path
           d="m 633.176,-18.782 2.498,0 0,-2.498 -2.498,0 0,2.498 z"
           style="fill:#000000;fill-opacity:1;fill-rule:nonzero;stroke:none"
           id="path470"
           inkscape:connector-curvature="0" /></g></g><path
       style="fill:#2b1100;fill-rule:evenodd;stroke:#000000;stroke-width:0.89257717px;stroke-linecap:butt;stroke-linejoin:miter;stroke-opacity:1"
       d="m -285.14779,418.45365 c -15.46825,2.79679 -24.28521,-13.15907 -27.59198,-23.3142 -8.15727,-25.05093 -19.00058,-48.15073 -24.0116,-70.67817 -8.2962,-37.29627 -11.95874,-65.08726 -17.81259,-77.26581 -6.90946,-16.18267 -36.28237,-34.23857 -35.50659,-49.06837 0.85513,-6.16237 21.57542,5.07416 29.99671,19.45732 7.10903,20.11747 17.08057,47.87649 24.44527,72.19168 7.18537,23.72311 9.99694,48.83042 19.23956,71.83018 8.06236,20.06274 41.26955,55.03417 31.24122,56.84737 z"
       id="path7358"
       inkscape:connector-curvature="0"
       sodipodi:nodetypes="ssscccaas" /></g></svg>